<svg width="41" height="40" viewBox="0 0 41 40" fill="none" xmlns="http://www.w3.org/2000/svg">
<path d="M20.5 38.9474C10.0358 38.9474 1.55263 30.4642 1.55263 20C1.55263 9.53581 10.0358 1.05265 20.5 1.05265C30.9642 1.05265 39.4474 9.53581 39.4474 20C39.4474 30.4642 30.9632 38.9474 20.5 38.9474Z" fill="#E1E8ED"/>
<mask id="mask0_2934_26259" style="mask-type:alpha" maskUnits="userSpaceOnUse" x="1" y="1" width="39" height="38">
<path d="M20.5 38.9474C10.0358 38.9474 1.55263 30.4642 1.55263 20C1.55263 9.53581 10.0358 1.05265 20.5 1.05265C30.9642 1.05265 39.4474 9.53581 39.4474 20C39.4474 30.4642 30.9632 38.9474 20.5 38.9474Z" fill="#E1E8ED"/>
</mask>
<g mask="url(#mask0_2934_26259)">
<path d="M37.3421 32.6316C41.8874 32.6316 44.7105 27.7916 44.7105 20C44.7105 12.2084 41.8874 7.36839 37.3421 7.36839C32.7968 7.36839 29.9737 12.2084 29.9737 20C29.9737 27.7916 32.7968 32.6316 37.3421 32.6316ZM37.3421 5.26313C41.9231 5.26313 46.8158 9.13471 46.8158 20C46.8158 30.8652 41.9231 34.7368 37.3421 34.7368C32.761 34.7368 27.8684 30.8652 27.8684 20C27.8684 9.13471 32.761 5.26313 37.3421 5.26313ZM3.65789 32.6316C8.2021 32.6316 11.0263 27.7916 11.0263 20C11.0263 12.2084 8.2021 7.36839 3.65789 7.36839C-0.886322 7.36839 -3.71053 12.2084 -3.71053 20C-3.71053 27.7905 -0.886322 32.6316 3.65789 32.6316ZM3.65789 5.26313C8.23789 5.26313 13.1316 9.13471 13.1316 20C13.1316 30.8652 8.23789 34.7368 3.65789 34.7368C-0.922112 34.7368 -5.8158 30.8652 -5.8158 20C-5.8158 9.13471 -0.922112 5.26313 3.65789 5.26313Z" fill="#B3BEC4"/>
</g>
<path d="M6.91263 11.7515C6.66316 11.7515 6.43158 11.7305 6.22737 11.6926C5.9628 11.6312 5.73217 11.47 5.58359 11.2426C5.43501 11.0152 5.37996 10.7393 5.42993 10.4723C5.4799 10.2054 5.63103 9.96799 5.85179 9.80977C6.07254 9.65154 6.34587 9.58467 6.61474 9.62311C7.06737 9.70416 9.44737 9.62942 9.92842 7.22731C9.95526 7.09146 10.0086 6.96225 10.0855 6.84706C10.1624 6.73187 10.2612 6.63299 10.3763 6.55606C10.4915 6.47914 10.6207 6.42568 10.7565 6.39877C10.8924 6.37186 11.0322 6.37201 11.1679 6.39922C11.3037 6.42643 11.4328 6.48017 11.5478 6.55734C11.6627 6.63452 11.7614 6.73363 11.838 6.84898C11.9146 6.96433 11.9677 7.09367 11.9942 7.22958C12.0208 7.36549 12.0202 7.5053 11.9926 7.641C11.38 10.7063 8.68842 11.7515 6.91263 11.7515ZM8.72211 15.7894C8.16421 15.7894 7.69895 15.581 7.67158 15.0168C7.64421 14.4368 8.09263 14.0578 8.67369 14.0305L8.79369 14.0821C10.0611 14.0242 11.3726 13.9936 12.7463 11.6157C12.8161 11.4966 12.9087 11.3925 13.0188 11.3093C13.129 11.2262 13.2545 11.1656 13.3881 11.1312C13.5218 11.0968 13.6609 11.0891 13.7976 11.1087C13.9342 11.1282 14.0656 11.1746 14.1842 11.2452C14.6874 11.5357 14.86 12.1873 14.5684 12.6905C12.619 16.0652 10.3747 15.9421 8.89053 16.0094L8.77263 15.7894H8.72211ZM11.0263 21.3494C10.2537 21.3494 9.5379 21.2073 8.99684 20.9515C8.74447 20.8319 8.54995 20.6169 8.45609 20.3539C8.36222 20.0908 8.37669 19.8013 8.49632 19.5489C8.61594 19.2965 8.83093 19.102 9.09397 19.0081C9.35702 18.9143 9.64658 18.9287 9.89895 19.0484C10.7716 19.4621 12.9779 19.2999 13.8253 17.9831C13.9762 17.7482 14.2142 17.5828 14.487 17.5234C14.7598 17.464 15.0451 17.5154 15.28 17.6663C15.5149 17.8172 15.6803 18.0552 15.7397 18.328C15.7991 18.6008 15.7477 18.8861 15.5968 19.121C14.5811 20.6999 12.6747 21.3494 11.0263 21.3494ZM12.2484 27.1652C10.6126 27.1652 9.09579 26.4294 8.11579 25.6115C8.00956 25.5231 7.92179 25.4145 7.8575 25.2921C7.79321 25.1698 7.75366 25.0359 7.7411 24.8982C7.72854 24.7605 7.74322 24.6217 7.7843 24.4897C7.82538 24.3577 7.89206 24.2351 7.98053 24.1289C8.069 24.0227 8.17753 23.9349 8.29991 23.8706C8.4223 23.8063 8.55616 23.7668 8.69383 23.7542C8.83151 23.7416 8.97031 23.7563 9.10231 23.7974C9.23431 23.8385 9.35693 23.9052 9.46316 23.9936C9.66737 24.1652 11.5179 25.6421 13.4442 24.8199C13.5715 24.766 13.7082 24.7376 13.8465 24.7364C13.9848 24.7353 14.1219 24.7614 14.2501 24.8132C14.3783 24.8651 14.495 24.9417 14.5936 25.0387C14.6922 25.1356 14.7708 25.2511 14.8247 25.3784C14.8787 25.5057 14.9071 25.6424 14.9082 25.7807C14.9094 25.9189 14.8833 26.0561 14.8314 26.1843C14.7796 26.3125 14.703 26.4292 14.606 26.5278C14.5091 26.6264 14.3936 26.7049 14.2663 26.7589C13.6281 27.0295 12.9416 27.1677 12.2484 27.1652ZM11.8158 32.6315H11.7863C9.15053 32.6315 6.86 30.9789 5.96106 29.3599C5.6779 28.8515 5.86211 28.261 6.36948 27.9778C6.8779 27.6947 7.51895 27.9042 7.80105 28.4115C8.31053 29.3284 9.90211 30.6578 11.8442 30.7115C12.4263 30.7273 12.8842 31.1189 12.8674 31.6999C12.8516 32.2715 12.3842 32.6315 11.8158 32.6315ZM30.1726 32.8284C30.0168 32.8286 29.8629 32.7942 29.722 32.7277C29.5811 32.6612 29.4567 32.5642 29.3579 32.4437C29.2591 32.3232 29.1882 32.1823 29.1506 32.0311C29.1129 31.8799 29.1093 31.7222 29.14 31.5694C29.839 28.0715 33.2379 27.1999 34.9053 27.5178C35.1795 27.5694 35.422 27.7278 35.5796 27.9582C35.7371 28.1885 35.7967 28.472 35.7453 28.7463C35.7205 28.8824 35.669 29.0124 35.5936 29.1285C35.5183 29.2446 35.4207 29.3446 35.3064 29.4227C35.1922 29.5009 35.0636 29.5555 34.928 29.5836C34.7925 29.6117 34.6527 29.6126 34.5168 29.5863C34.0695 29.5021 31.6853 29.5789 31.2032 31.9821C31.1559 32.2206 31.0273 32.4353 30.8394 32.5897C30.6515 32.744 30.4158 32.8284 30.1726 32.8284ZM27.4726 28.0915C27.2878 28.0917 27.1062 28.0431 26.9462 27.9507C26.7861 27.8583 26.6532 27.7254 26.5609 27.5653C26.4686 27.4052 26.4201 27.2236 26.4203 27.0388C26.4205 26.854 26.4694 26.6725 26.5621 26.5126C28.5116 23.1378 30.7558 23.0347 32.24 22.9663L32.3579 22.961C32.6365 22.9484 32.9087 23.0467 33.1151 23.2343C33.3214 23.4218 33.445 23.6835 33.459 23.9621C33.4656 24.1002 33.445 24.2382 33.3983 24.3683C33.3516 24.4985 33.2797 24.6181 33.1867 24.7205C33.0938 24.8228 32.9816 24.9058 32.8565 24.9648C32.7314 25.0238 32.596 25.0575 32.4579 25.0642L32.3368 25.0694C31.0695 25.1284 29.7589 25.1873 28.3853 27.5652C28.293 27.7255 28.16 27.8586 27.9997 27.951C27.8394 28.0435 27.6576 28.0919 27.4726 28.0915ZM26.42 21.7105C26.231 21.7103 26.0456 21.6592 25.8832 21.5627C25.7207 21.4661 25.5873 21.3276 25.4968 21.1616C25.4064 20.9957 25.3623 20.8085 25.3691 20.6197C25.376 20.4308 25.4336 20.2473 25.5358 20.0884C27.0253 17.7694 30.4368 17.4557 32.1347 18.2589C32.2597 18.318 32.3718 18.4012 32.4646 18.5037C32.5574 18.6062 32.6291 18.726 32.6755 18.8563C32.722 18.9865 32.7423 19.1246 32.7353 19.2627C32.7283 19.4008 32.6941 19.5361 32.6347 19.661C32.5758 19.786 32.4928 19.8982 32.3904 19.9911C32.2881 20.084 32.1684 20.1558 32.0382 20.2023C31.9081 20.2489 31.77 20.2693 31.6319 20.2624C31.4939 20.2555 31.3585 20.2214 31.2337 20.1621C30.3611 19.7473 28.1537 19.9105 27.3063 21.2273C27.211 21.3757 27.0798 21.4978 26.9249 21.5822C26.77 21.6666 26.5964 21.7107 26.42 21.7105ZM32.3411 15.4599C32.0948 15.4601 31.8563 15.3737 31.6674 15.2157C31.4632 15.0452 29.6126 13.5747 27.6874 14.3894C27.5598 14.4456 27.4222 14.4759 27.2828 14.4786C27.1434 14.4812 27.0048 14.4561 26.8752 14.4047C26.7455 14.3533 26.6274 14.2767 26.5276 14.1793C26.4278 14.0819 26.3484 13.9656 26.2939 13.8372C26.2395 13.7088 26.2111 13.5709 26.2104 13.4315C26.2097 13.292 26.2367 13.1538 26.2898 13.0249C26.343 12.896 26.4212 12.7789 26.52 12.6805C26.6188 12.582 26.7362 12.5042 26.8653 12.4515C29.2011 11.4599 31.639 12.4505 33.0168 13.5989C33.1825 13.7378 33.3014 13.9243 33.3574 14.133C33.4135 14.3418 33.404 14.5627 33.3302 14.7659C33.2564 14.9691 33.1219 15.1446 32.945 15.2688C32.7681 15.393 32.5572 15.4597 32.3411 15.4599ZM34.2505 11.3157C34.0627 11.3159 33.8782 11.2659 33.7163 11.1707C33.5543 11.0756 33.4208 10.9388 33.3295 10.7747C32.82 9.85679 31.2284 8.53995 29.2863 8.48626C28.7042 8.47047 28.2474 7.95363 28.2632 7.37153C28.279 6.801 28.7463 6.31574 29.3147 6.31574H29.3442C31.9811 6.31574 34.2705 8.09889 35.1695 9.71784C35.3056 9.96457 35.3389 10.255 35.2623 10.5262C35.1856 10.7973 35.0051 11.0273 34.76 11.1663C34.6056 11.2585 34.4303 11.31 34.2505 11.3157Z" fill="#DD2E44"/>
</svg>
