<svg width="41" height="40" viewBox="0 0 41 40" fill="none" xmlns="http://www.w3.org/2000/svg">
<path d="M20.5 38.8205C30.895 38.8205 39.3218 30.3937 39.3218 19.9988C39.3218 9.60379 30.895 1.177 20.5 1.177C10.105 1.177 1.67822 9.60379 1.67822 19.9988C1.67822 30.3937 10.105 38.8205 20.5 38.8205Z" fill="#FE9967"/>
<path d="M22.6588 38.7C21.9529 38.7824 21.2294 38.8236 20.5 38.8236C10.1059 38.8236 1.67648 30.3941 1.67648 20C1.67648 9.6059 10.1059 1.17651 20.5 1.17651C21.2294 1.17651 21.9529 1.2177 22.6588 1.30002C13.2765 2.37061 5.99411 10.3353 5.99411 20C5.99411 29.6647 13.2765 37.6294 22.6588 38.7Z" fill="#EF8759"/>
<path d="M26.5458 37.8338C19.1063 35.3193 13.747 28.2881 13.747 20C13.747 11.7513 19.0549 4.7467 26.439 2.20128C26.1763 2.0985 25.935 1.97075 25.7149 1.82068C17.689 3.97303 11.7765 11.2959 11.7765 20C11.7765 28.7228 17.7141 36.0593 25.7665 38.1939C26.0039 38.0486 26.2629 37.9263 26.5458 37.8338Z" fill="#FFAC88"/>
<path d="M39.3235 20C39.3235 30.3941 30.9 38.8235 20.5 38.8235C20.3176 38.8235 20.1353 38.8235 19.9529 38.8176C27.8529 38.7235 35.0118 29.0529 35.0118 20C35.0118 12.2412 30.1 3.39998 23.4765 1.41174C32.4647 2.8353 39.3235 10.6176 39.3235 20Z" fill="#FFAC88"/>
<path d="M31.9316 29.9333C33.0316 30.6392 34.1493 31.2804 35.1375 31.8274C34.8728 32.1627 34.5905 32.4863 34.3022 32.798C33.3551 32.2745 32.3022 31.6627 31.2551 30.9863C27.4963 28.598 24.8904 26.0274 23.2904 23.151C22.0963 21.0039 21.4904 18.6098 21.5257 16.3216C20.5728 16.398 19.5552 16.4921 18.4316 16.6333C17.0787 16.798 15.7375 16.998 14.414 17.2333C14.3081 18.5274 14.2846 19.8392 14.3493 21.1451C14.614 27.351 16.6846 33.5804 20.214 38.8157C19.6904 38.8098 19.1728 38.7804 18.661 38.7274C15.314 33.4686 13.3492 27.3274 13.0904 21.198C13.0375 19.9627 13.0551 18.7039 13.1375 17.4686C12.0493 17.6686 10.9963 17.8804 9.98456 18.1275C9.77866 19.2745 9.54927 20.4274 9.31986 21.5451C8.68455 24.6274 8.03162 27.8157 8.11398 30.9627C8.14339 32.1627 8.29044 33.3568 8.5316 34.5274C8.0081 34.098 7.50808 33.6333 7.0375 33.151C6.93162 32.4333 6.87281 31.7157 6.85514 30.9922C6.7669 27.7039 7.44338 24.4451 8.08457 21.2921C8.28456 20.3568 8.47279 19.4039 8.64337 18.4451C6.27869 19.0157 3.94337 19.698 1.68457 20.498C1.67868 20.3333 1.67868 20.1627 1.67868 19.998C1.67868 19.7215 1.68457 19.4451 1.69631 19.1686C4.03162 18.3627 6.43749 17.6627 8.87867 17.098C9.10809 15.5804 9.24338 14.298 9.27867 13.098C9.33748 11.1921 9.1022 9.76861 8.54926 8.60977C8.20219 7.88037 7.67869 7.25095 7.0669 6.80977C7.36101 6.5098 7.66691 6.22154 7.98454 5.9392C8.68454 6.48036 9.27278 7.21566 9.68455 8.06861C10.3316 9.4098 10.6022 11.0157 10.5375 13.1333C10.5081 14.251 10.3904 15.4392 10.1963 16.7863C11.1845 16.5627 12.2022 16.3569 13.2493 16.1686C13.7846 10.898 15.4787 5.81566 18.1904 1.31568C18.7081 1.25098 19.2316 1.2098 19.7551 1.19214C16.9198 5.62746 15.1434 10.6863 14.5493 15.9333C15.7728 15.7274 17.0257 15.5333 18.2845 15.3804C19.4963 15.2392 20.5904 15.1333 21.6198 15.0569C21.761 13.9921 22.0434 12.9686 22.4904 12.0098C23.7022 9.40392 26.1728 7.18626 29.4434 5.78037C30.1728 5.46862 30.9493 5.19213 31.7963 4.9392C32.2022 5.24509 32.6022 5.56861 32.9786 5.9098C31.8434 6.2098 30.8551 6.53921 29.9493 6.93332C26.9551 8.22156 24.7081 10.2157 23.6257 12.5451C23.2669 13.3098 23.0257 14.1274 22.8963 14.9745C28.2728 14.6274 33.6081 14.8039 38.7846 15.5215C38.8904 15.951 38.9787 16.3863 39.0492 16.8274C33.761 16.0627 28.3022 15.8686 22.7846 16.2451C22.7257 18.3392 23.2845 20.551 24.3845 22.5333C25.8904 25.2274 28.361 27.651 31.9316 29.9333Z" fill="#666666"/>
</svg>
