<svg width="35" height="35" viewBox="0 0 35 35" fill="none" xmlns="http://www.w3.org/2000/svg">
<g clip-path="url(#clip0_2993_42005)">
<path d="M30.1481 4.7629C27.8731 2.48935 24.1748 2.48935 21.8983 4.7629L8.2483 18.4129C6.79288 19.8683 6.79288 22.2381 8.2483 23.6935L11.2175 26.6627C11.9452 27.3904 12.9004 27.755 13.8585 27.755C14.8137 27.755 15.7704 27.3904 16.4981 26.6627L30.1481 13.0127C32.4216 10.7391 32.4216 7.0379 30.1481 4.7629Z" fill="#E65100"/>
<path d="M9.7781 25.2219L8.2483 23.6935C6.79288 22.2381 6.79288 19.8683 8.2483 18.4129L21.8983 4.7629C24.1748 2.48935 27.8731 2.48935 30.1481 4.7629L30.1918 4.80811L9.7781 25.2219Z" fill="#EF6C00"/>
<path d="M25.6459 25.3958C26.7849 26.5348 28.6316 26.5348 29.7706 25.3958C30.9097 24.2568 30.9097 22.41 29.7706 21.271C28.6316 20.132 26.7849 20.132 25.6459 21.271C24.5068 22.41 24.5068 24.2568 25.6459 25.3958Z" fill="#F4511E"/>
<path fill-rule="evenodd" clip-rule="evenodd" d="M29.7842 21.284C30.9092 22.4235 30.9051 24.2611 29.7708 25.3954C28.6323 26.5339 26.7844 26.5339 25.646 25.3954L29.7708 21.2706L29.7842 21.284Z" fill="#D84315"/>
<path d="M6.26058 26.6773L4.80225 28.1357L3.34392 29.594C2.77371 30.1642 2.77371 31.0859 3.34392 31.6561C3.62829 31.9405 4.00162 32.0834 4.37496 32.0834C4.74829 32.0834 5.12162 31.9405 5.406 31.6561L6.86433 30.1977L8.32267 28.7394L9.781 27.2811L7.71892 25.219L6.26058 26.6773Z" fill="#5D4037"/>
<path d="M8.74996 26.25L3.34392 31.6561C2.77371 31.0859 2.77371 30.1642 3.34392 29.594L7.71892 25.219L8.74996 26.25Z" fill="#6D4C41"/>
</g>
<defs>
<clipPath id="clip0_2993_42005">
<rect width="35" height="35" fill="white"/>
</clipPath>
</defs>
</svg>
