<svg width="209" height="40" viewBox="0 0 209 40" fill="none" xmlns="http://www.w3.org/2000/svg">
<g clip-path="url(#clip0_3006_3407)">
<path d="M111.326 10.7261C111.094 10.7261 111.016 10.8809 111.016 11.1133C111.016 11.3456 111.016 11.5779 110.978 11.7716C110.978 11.8877 110.862 12.0039 110.784 12.0813C110.784 12.1588 110.707 12.1975 110.707 12.2749C110.707 12.4686 110.707 12.6234 110.707 12.8171C110.707 12.9719 110.707 13.0881 110.513 13.1656C110.474 13.1656 110.436 13.2817 110.397 13.3592C110.397 13.6302 110.358 13.9013 110.319 14.1723C110.319 14.3272 110.319 14.4434 110.126 14.4821C110.087 14.4821 110.048 14.5983 110.048 14.6757C110.048 14.8693 110.048 15.0629 110.048 15.2953C110.048 15.4889 110.048 15.6825 109.816 15.7987C109.777 15.7987 109.739 15.9148 109.739 15.9923C109.739 16.1859 109.739 16.3795 109.739 16.6118C109.739 16.6893 109.739 16.7667 109.739 16.7667C109.351 16.8829 109.506 17.2314 109.468 17.4637C109.468 17.6186 109.468 17.7348 109.429 17.8897C109.429 17.9284 109.429 18.0058 109.429 18.0445C109.003 18.2382 109.235 18.6254 109.158 18.8964C109.158 19.0126 109.042 19.09 109.003 19.2062C108.964 19.2837 108.887 19.3611 108.887 19.4385C108.848 19.787 108.809 20.1355 108.771 20.484C108.538 20.484 108.5 20.6389 108.5 20.8713C108.5 21.0649 108.5 21.2972 108.5 21.4908C108.5 21.6457 108.5 21.8006 108.306 21.8393C108.267 21.8393 108.228 21.9555 108.19 22.0329C108.19 22.2265 108.19 22.4201 108.151 22.6525C108.151 22.7299 108.035 22.8461 107.996 22.9235C107.957 23.001 107.88 23.0784 107.88 23.1559C107.88 23.4269 107.88 23.7367 107.803 24.0078C107.803 24.0852 107.803 24.2014 107.764 24.2014C107.415 24.2788 107.531 24.5886 107.493 24.7822C107.454 24.9758 107.57 25.2469 107.26 25.363C107.26 25.363 107.222 25.4792 107.222 25.5566C107.222 25.789 107.222 26.06 107.144 26.2924C107.144 26.4085 107.028 26.5247 106.951 26.6021C106.951 26.6796 106.873 26.7183 106.873 26.7958C106.873 27.0668 106.834 27.3766 106.796 27.6476C106.796 27.7251 106.796 27.8413 106.718 27.88C106.447 27.9187 106.525 28.151 106.486 28.3059C106.447 28.577 106.525 28.8868 106.215 29.0804C106.137 29.1191 106.137 29.3127 106.137 29.4289C106.137 29.6999 106.137 29.971 106.137 30.242C105.866 30.242 105.828 30.4356 105.789 30.6292C105.789 30.9003 105.905 31.2488 105.518 31.4037C105.518 31.4037 105.518 31.5199 105.479 31.5973C105.479 31.8684 105.479 32.1394 105.44 32.4105C105.44 32.4879 105.44 32.6041 105.402 32.6041C105.053 32.6815 105.169 32.9526 105.131 33.1462C105.131 33.3011 105.131 33.456 105.092 33.6109C105.092 33.7657 104.976 33.8819 104.898 33.9981H104.821C104.821 34.1917 104.821 34.424 104.821 34.6176C104.821 34.7725 104.821 34.9274 104.627 35.0049C104.55 35.0049 104.511 35.2372 104.511 35.3921C104.511 35.5857 104.511 35.7793 104.472 35.9729C104.472 36.1278 104.472 36.2827 104.279 36.3214C104.279 36.3214 104.201 36.4376 104.201 36.4763C104.201 36.7086 104.201 36.941 104.163 37.1346C104.163 37.3282 104.163 37.5605 103.93 37.638C103.93 37.638 103.892 37.7541 103.853 37.8316C103.853 38.0252 103.853 38.2188 103.814 38.4511C103.814 38.5286 103.698 38.606 103.659 38.6835C103.621 38.7609 103.543 38.7996 103.543 38.8771C103.543 39.0707 103.504 39.2256 103.504 39.4192C103.504 39.5741 103.504 39.729 103.311 39.729H103.272C103.117 40.1549 102.769 40 102.498 40C68.6544 40 34.7725 40 0.929339 40C0.271062 40 0.271062 40 0.309784 39.3417C0.309784 39.1868 0.309784 39.032 0.309784 38.8771C0.309784 38.7996 0.309784 38.7222 0.309784 38.7222C0.658283 38.5673 0.542117 38.2188 0.619561 37.9477C0.658283 37.7154 0.503395 37.4056 0.890616 37.2895C0.890616 37.2895 0.890616 37.1733 0.890616 37.1346C0.890616 36.941 0.890616 36.7474 0.890616 36.515C0.890616 36.3989 0.890616 36.1665 0.968061 36.1278C1.35528 35.8955 1.16167 35.5082 1.23912 35.1985C1.23912 35.0823 1.35528 35.0049 1.394 34.9274C1.394 34.85 1.51017 34.8112 1.51017 34.7338C1.51017 34.5015 1.51017 34.3079 1.54889 34.0755C1.54889 33.8819 1.51017 33.6496 1.78123 33.6109C1.78123 33.6109 1.81995 33.4947 1.85867 33.4172C1.85867 33.2236 1.85867 33.03 1.85867 32.7977C1.85867 32.7202 1.93612 32.6428 2.01356 32.5266C2.05228 32.4492 2.12973 32.3717 2.12973 32.2943C2.12973 32.0232 2.16845 31.7522 2.20717 31.4811C2.20717 31.4037 2.20717 31.2875 2.24589 31.2875C2.59439 31.2101 2.47823 30.9003 2.51695 30.668C2.51695 30.5131 2.51695 30.3582 2.51695 30.2033C2.51695 30.0871 2.51695 29.9322 2.71056 29.8935C2.74928 29.8935 2.788 29.7774 2.82673 29.6999C2.82673 29.5063 2.82673 29.3514 2.86545 29.1578C2.86545 29.0029 2.86545 28.848 3.05906 28.8093C3.09778 28.8093 3.1365 28.6931 3.1365 28.6157C3.1365 28.3834 3.1365 28.1898 3.17522 27.9574C3.17522 27.7638 3.1365 27.5702 3.40756 27.4928C3.40756 27.4928 3.485 27.3766 3.485 27.2991C3.485 27.0668 3.485 26.8345 3.52372 26.5634C3.52372 26.4085 3.52372 26.2536 3.75606 26.1762C3.79478 26.1762 3.8335 26.06 3.8335 25.9826C3.8335 25.789 3.8335 25.6341 3.87222 25.4405C3.87222 25.3243 3.98839 25.2081 4.06583 25.1307C4.06583 25.0533 4.14328 25.0145 4.14328 24.9371C4.14328 24.7048 4.182 24.4337 4.22072 24.2014C4.22072 24.0465 4.22072 23.8529 4.41433 23.8529C4.41433 23.8529 4.49178 23.7367 4.49178 23.698C4.49178 23.5431 4.49178 23.3882 4.49178 23.2333C4.49178 23.0784 4.49178 22.8848 4.68539 22.8074C4.76283 22.8074 4.80156 22.575 4.80156 22.4201C4.80156 22.2265 4.80156 22.0329 4.80156 21.8006C4.80156 21.6844 4.80156 21.5295 4.99517 21.4908C5.03389 21.4908 5.07261 21.3746 5.11133 21.2972C5.11133 21.0261 5.15005 20.7938 5.18878 20.5228C5.18878 20.3292 5.18878 20.1743 5.49855 20.1743C5.49855 19.9419 5.49855 19.7483 5.49855 19.5547C5.49855 19.3998 5.42111 19.1675 5.73089 19.1288C5.73089 19.1288 5.76961 19.0126 5.80833 18.9352C5.80833 18.6641 5.80833 18.393 5.88578 18.122C5.88578 18.0058 6.00194 17.8897 6.07939 17.7735H6.19555C6.19555 17.7735 6.19555 17.425 6.19555 17.2314C6.19555 17.0378 6.11811 16.8442 6.42789 16.728C6.50533 16.728 6.50533 16.4957 6.54405 16.3408C6.54405 16.1472 6.54405 15.9535 6.54405 15.7599C6.54405 15.605 6.54405 15.4889 6.73766 15.4502C6.73766 15.4502 6.81511 15.334 6.81511 15.2953C6.81511 15.1017 6.81511 14.908 6.85383 14.6757C6.85383 14.4434 6.81511 14.2111 7.12489 14.0949C7.12489 14.0949 7.16361 13.9787 7.16361 13.9013C7.16361 13.7077 7.16361 13.5141 7.16361 13.2817C7.16361 13.2043 7.16361 13.0881 7.20233 13.0881C7.51211 13.0494 7.39594 12.7783 7.43466 12.6234C7.43466 12.4298 7.43466 12.2362 7.51211 12.0426C7.51211 11.9264 7.62827 11.849 7.70572 11.7716C7.70572 11.6941 7.78316 11.6554 7.78316 11.5779C7.78316 11.3843 7.78316 11.1907 7.78316 10.9584C7.78316 10.8809 7.86061 10.8035 7.93805 10.7261C7.97677 10.6486 8.05422 10.5712 8.05422 10.4937C8.05422 10.2614 8.05422 10.0291 8.13166 9.758C8.13166 9.60311 8.13166 9.4095 8.364 9.37078C8.364 9.37078 8.44144 9.25461 8.44144 9.17717C8.44144 8.94483 8.44144 8.67378 8.44144 8.44145C8.44144 8.28656 8.44144 8.09295 8.67377 8.05422C8.67377 8.05422 8.75122 7.93806 8.75122 7.86061C8.75122 7.667 8.75122 7.47339 8.82866 7.27978C8.82866 7.20234 8.94483 7.08617 8.98355 7.00873C9.02227 6.93128 9.09972 6.89256 9.09972 6.81511C9.09972 6.58278 9.09972 6.38917 9.13844 6.15684C9.13844 5.96323 9.061 5.73089 9.37077 5.69217C9.37077 5.69217 9.40949 5.576 9.44822 5.49856C9.44822 5.26623 9.44822 4.99517 9.52566 4.76284C9.52566 4.60795 9.52566 4.41434 9.75799 4.37562C9.75799 4.37562 9.83544 4.25945 9.83544 4.22073C9.83544 4.02712 9.83544 3.83351 9.87416 3.6399C9.87416 3.52373 9.99033 3.44629 10.029 3.33012C10.029 3.25268 10.1065 3.21395 10.1452 3.13651C10.1452 2.90418 10.1452 2.67184 10.2227 2.40079C10.2227 2.2459 10.1839 2.01357 10.455 1.97484C10.455 1.97484 10.4937 1.85868 10.5324 1.78123C10.5324 1.58762 10.5324 1.43273 10.5712 1.23912C10.5712 1.12296 10.6873 1.00679 10.7648 0.890623C10.8035 0.774456 10.8809 0.619568 10.8809 0.503401C10.8809 0.348512 10.8809 0.154902 10.9197 -0.0387093C11.1133 -0.0387093 11.3069 -0.0387093 11.5005 -0.0387093C45.4986 -0.0387093 79.4966 -0.0387093 113.456 -0.0387093C114.192 -0.0387093 114.114 -0.23232 114.114 0.65829C114.114 0.813178 114.114 0.968067 113.921 1.00679C113.882 1.00679 113.843 1.12296 113.843 1.2004C113.843 1.43273 113.843 1.66507 113.804 1.93612C113.804 2.09101 113.804 2.28462 113.572 2.32334C113.572 2.32334 113.495 2.43951 113.495 2.51695C113.495 2.74929 113.495 3.02034 113.417 3.25268C113.417 3.40756 113.262 3.52373 113.224 3.6399C113.224 3.71734 113.146 3.75606 113.146 3.83351C113.146 4.02712 113.146 4.22073 113.107 4.45306C113.107 4.49178 113.107 4.56923 113.107 4.60795C112.682 4.80156 112.875 5.18878 112.836 5.49856C112.798 5.69217 112.875 5.9245 112.604 6.04067C112.604 6.04067 112.565 6.15684 112.527 6.23428C112.527 6.42789 112.527 6.66023 112.488 6.85384C112.488 6.89256 112.488 7.00873 112.449 7.00873C112.101 7.08617 112.217 7.39595 112.178 7.58956C112.178 7.74445 112.178 7.89934 112.178 8.05422C112.178 8.20911 112.178 8.32528 111.985 8.364C111.946 8.364 111.907 8.48017 111.868 8.55761C111.868 8.78995 111.868 8.98356 111.791 9.21589C111.791 9.29333 111.713 9.37078 111.675 9.4095C111.636 9.48695 111.52 9.56439 111.52 9.68056C111.52 10.0291 111.481 10.3388 111.481 10.6873L111.326 10.7261ZM41.7425 19.2062H41.8587C41.8587 19.2062 42.0136 19.0126 42.0523 18.8964C42.1297 18.7803 42.0523 18.5479 42.3233 18.5092C42.3233 18.5092 42.4008 18.3543 42.4008 18.2769C42.4008 18.1607 42.4008 17.8897 42.4782 17.8897C42.8267 17.7735 42.7106 17.5024 42.7493 17.3088C42.7493 17.1539 42.7493 16.8829 42.8267 16.8442C43.1365 16.728 43.0591 16.4957 43.0591 16.302C43.0591 14.9855 43.0591 13.6302 43.0591 12.3137C43.0591 12.1201 43.1752 11.8103 42.8267 11.7328C42.8267 11.7328 42.8267 11.6167 42.788 11.5779C42.788 11.3843 42.788 11.1907 42.7493 10.9584C42.7493 10.8809 42.7493 10.7648 42.6718 10.7648C42.3621 10.7261 42.4782 10.4163 42.4008 10.2614C42.2459 9.99033 42.0523 9.71928 41.9748 9.4095C41.9748 9.4095 41.8974 9.4095 41.82 9.4095C41.82 9.4095 41.7812 9.4095 41.7425 9.37078V9.13844C41.7425 9.13844 41.5102 9.02228 41.4327 8.94483C41.3553 8.86739 41.2778 8.78995 41.2004 8.7125C41.2004 8.7125 41.123 8.63506 41.123 8.59634C40.9293 8.364 40.7357 8.17039 40.5421 7.93806C40.4647 7.89934 40.3872 7.78317 40.3098 7.74445C40.1936 7.667 40.0774 7.58956 39.9613 7.51211C39.8451 7.43467 39.729 7.43467 39.5741 7.39595C39.4966 7.39595 39.4192 7.3185 39.4192 7.27978C39.4192 7.08617 39.2643 7.08617 39.1481 7.08617C38.9932 7.08617 38.8771 7.00873 38.7609 6.93128C38.6835 6.89256 38.606 6.77639 38.4898 6.77639C38.2575 6.73767 37.9477 6.77639 37.7928 6.66023C37.5992 6.46662 37.3669 6.46661 37.1346 6.46661C36.7861 6.46661 36.3988 6.46661 36.0503 6.46661C30.0097 6.46661 23.9303 6.46661 17.8896 6.46661C17.3088 6.46661 16.728 6.46661 16.1472 6.46661C15.9148 6.46661 15.8374 6.54406 15.8374 6.77639C15.8374 7.93806 15.8374 9.061 15.8374 10.2227C15.8374 10.3001 15.8374 10.4163 15.8374 10.5324C15.9923 10.5324 16.1472 10.5324 16.2633 10.5324C22.8848 10.5324 29.4676 10.5324 36.0891 10.5324C36.3988 10.5324 36.8248 10.3776 37.0571 10.8035H37.0958C37.3282 10.8809 37.638 10.8035 37.7541 11.152C37.7541 11.2294 37.9477 11.2294 38.0252 11.2682C38.1026 11.3069 38.1801 11.3843 38.2188 11.4618C38.2575 11.5392 38.2962 11.6167 38.335 11.6941C38.335 11.6941 38.335 11.7716 38.335 11.8103L38.606 11.8877C38.606 12.2362 38.606 12.546 38.6447 12.8945C38.6447 12.9719 38.6447 13.0881 38.7222 13.1268C38.9932 13.2043 38.9158 13.4366 38.9158 13.5915C38.9158 13.94 38.9158 14.2885 38.9158 14.637C38.9158 14.7144 38.8771 14.7919 38.8383 14.8693C38.7996 14.9855 38.6835 15.1017 38.6835 15.2178C38.6835 15.6438 38.6835 16.0697 38.6835 16.4957C38.1801 16.5344 38.3737 16.9603 38.2575 17.1539H38.0252V17.5024H37.909C37.909 17.5024 37.7154 17.696 37.638 17.7735C37.5992 17.8122 37.5218 17.8122 37.4443 17.8509C37.2895 17.8509 37.0571 17.8509 37.0184 17.9671C36.9022 18.1994 36.7473 18.1607 36.5537 18.1607C36.244 18.1607 35.9342 18.1607 35.6631 18.1607C29.1965 18.1607 22.7686 18.1607 16.302 18.1607C16.1472 18.1607 15.9923 18.1607 15.7987 18.1607C15.7987 18.393 15.7987 18.5867 15.7987 18.7803C15.7987 23.5044 15.7987 28.1898 15.7987 32.9139C15.7987 33.0687 15.7987 33.1849 15.7987 33.3398C15.7987 33.5721 15.8761 33.6109 16.1084 33.6109C17.1539 33.6109 18.1607 33.6109 19.2062 33.6109C19.8645 33.6109 19.8258 33.727 19.8258 32.9913C19.8258 29.6225 19.8258 26.2536 19.8258 22.8461C19.8258 22.6525 19.8258 22.4589 19.8258 22.1878C20.0581 22.1878 20.2517 22.1878 20.4453 22.1878C25.9826 22.1878 31.5586 22.1878 37.0958 22.1878C37.3282 22.1878 37.5992 22.304 37.7154 21.9555C37.7154 21.9555 37.8316 21.9555 37.909 21.9168C38.1026 21.9168 38.2575 21.9168 38.4511 21.878C38.4898 21.878 38.606 21.878 38.606 21.8393C38.6835 21.5683 38.9158 21.607 39.1094 21.5683C39.1481 21.5683 39.2643 21.5683 39.2643 21.5295C39.3805 21.181 39.6902 21.2585 39.9226 21.2198C39.9226 20.9874 40.1936 20.9487 40.2323 20.91C40.3485 20.6002 40.6196 20.6389 40.8132 20.5228C40.8906 20.4453 40.9293 20.2904 41.0455 20.2517C41.2391 20.2517 41.2391 20.0968 41.2778 19.9807C41.3553 19.8258 41.4714 19.6709 41.5489 19.5547H41.6263V19.3224L41.7425 19.2062ZM59.2062 14.1336C58.8577 14.1336 58.9352 13.8625 58.8964 13.6689C58.8964 13.5915 58.8577 13.4366 58.819 13.4366C58.5866 13.4366 58.6254 13.243 58.5867 13.1268C58.5479 12.8558 58.6641 12.546 58.2769 12.4298C58.2769 12.4298 58.2769 12.3911 58.2769 12.3524C58.2769 12.1201 58.3543 11.8103 57.9671 11.6941C58.0445 11.3069 57.7348 11.0746 57.6186 10.7648C57.6186 10.7261 57.6186 10.6486 57.6186 10.5712C57.6186 10.455 57.6186 10.3776 57.6186 10.2614C57.6186 10.1839 57.5799 10.1065 57.5024 10.1065C57.3088 10.1065 57.3088 9.95161 57.3088 9.79672C57.3088 9.60311 57.3088 9.33206 56.999 9.33206V8.75122H56.8829C56.8829 8.75122 56.728 8.51889 56.6505 8.40272C56.6118 8.24784 56.6118 8.09295 56.5731 7.97678C56.5731 7.89934 56.5344 7.82189 56.4957 7.78317C56.2633 7.78317 56.302 7.58956 56.2633 7.43467C56.2633 7.27978 56.302 7.00873 55.9923 7.00873C55.9923 7.00873 55.9535 6.93128 55.9535 6.89256C55.9535 6.73767 55.9148 6.58278 55.8761 6.38917C55.6825 6.38917 55.4889 6.38917 55.2953 6.38917C54.1723 6.38917 53.0494 6.38917 51.8877 6.38917C51.6167 6.38917 51.4618 6.46662 51.5392 6.73767C51.5392 6.93128 51.5392 7.27978 51.6554 7.3185C51.8877 7.43467 51.849 7.58956 51.8877 7.74445C51.8877 7.82189 51.8877 7.93806 51.8877 8.0155L52.1588 8.09295C52.2362 8.364 52.12 8.7125 52.4685 8.86739C52.4685 8.86739 52.4685 8.98356 52.5073 9.02228C52.5073 9.17717 52.5073 9.37078 52.5847 9.52567C52.5847 9.60311 52.6622 9.64183 52.7009 9.71928C52.7396 9.79672 52.8558 9.87417 52.8558 9.95161C52.8945 10.1452 52.8558 10.455 53.2043 10.455C53.2043 10.5324 53.2043 10.6099 53.2043 10.6873C53.2043 10.8035 53.2043 11.0358 53.243 11.0746C53.5915 11.152 53.4753 11.4618 53.514 11.6941C53.514 11.8877 53.514 12.1588 53.8238 12.1588V12.7783L54.1336 12.8558L54.211 13.4753C54.5595 13.4753 54.4821 13.7077 54.5208 13.9013C54.5208 14.0562 54.5208 14.3659 54.637 14.4047C54.8693 14.4821 54.8306 14.6757 54.8693 14.8306C54.908 14.9855 54.9855 15.1017 55.0629 15.2565H55.1404C55.1404 15.2565 55.1404 15.7212 55.2565 15.7987C55.5663 15.9535 55.5276 16.1859 55.5276 16.4182C55.5276 16.6118 55.5276 16.8054 55.8374 16.8442C55.8374 16.999 55.8374 17.1539 55.8761 17.2701C55.8761 17.3475 55.9535 17.4637 55.9923 17.5024C56.1859 17.5024 56.1859 17.6573 56.1859 17.8122C56.1859 17.9284 56.1859 18.1607 56.2633 18.1607C56.5731 18.2382 56.4957 18.5092 56.5344 18.7028C56.5731 18.8964 56.5344 19.1288 56.8054 19.2062C56.8054 19.2062 56.8442 19.3224 56.8442 19.3611C56.8442 19.516 56.8442 19.6709 56.8442 19.8645C57.1152 19.8645 57.1152 20.0194 57.1539 20.213C57.1539 20.3679 57.1539 20.6002 57.3863 20.6389C57.3863 20.6389 57.4637 20.7551 57.4637 20.8325C57.4637 21.0262 57.4637 21.181 57.5411 21.3746C57.5411 21.4521 57.6186 21.5295 57.6573 21.5295C57.9671 21.607 57.8122 21.8393 57.8122 21.9942C57.8122 22.2265 57.6573 22.1878 57.5024 22.1878C54.9855 22.1878 52.5073 22.1878 49.9903 22.1878C49.7193 22.1878 49.6805 21.878 49.4869 21.7619C49.4869 21.7231 49.5257 21.607 49.5644 21.607C49.758 21.607 49.758 21.4521 49.758 21.2972C49.758 21.1036 49.758 20.8325 50.0678 20.8325V20.213L50.3775 20.1355C50.3775 20.1355 50.3776 19.787 50.4163 19.6322C50.4163 19.516 50.4937 19.3224 50.5712 19.2837C50.7648 19.2062 50.726 19.09 50.7648 18.9352C50.7648 18.7803 50.8035 18.6641 50.8809 18.5092C50.8809 18.4318 50.9971 18.393 51.0358 18.3156C50.9584 18.2769 50.8422 18.1994 50.7648 18.1994C50.6873 18.1994 50.6099 18.1994 50.5324 18.1994C49.3708 18.1994 48.1704 18.1994 47.0087 18.1994C46.4666 18.1994 46.4666 18.1994 46.4279 18.7415C46.4279 18.8964 46.3117 19.0126 46.273 19.1675C46.2343 19.2449 46.1568 19.3224 46.1181 19.4385C46.1181 19.5547 46.1181 19.7096 46.0794 19.8258L45.8083 19.9032C45.8083 19.9032 45.8083 20.1743 45.7696 20.2904C45.7696 20.3679 45.6922 20.484 45.6534 20.5615C45.6147 20.6389 45.4986 20.7164 45.4986 20.7938C45.4598 20.9487 45.4986 21.1423 45.4211 21.2972C45.4211 21.3746 45.3437 21.4521 45.3049 21.4908C45.2662 21.5683 45.1501 21.6457 45.1501 21.7619C45.1113 21.9555 45.1501 22.2265 44.8403 22.2265C44.8403 22.3814 44.8403 22.4976 44.8403 22.6525C44.8403 22.7299 44.8403 22.8848 44.8016 22.8848C44.4531 23.001 44.5692 23.272 44.4918 23.5044C44.4531 23.6593 44.3369 23.8141 44.2594 23.969H44.182C44.182 24.2788 44.182 24.2788 43.8722 24.6273C43.8722 24.6273 43.8722 24.7048 43.8722 24.7822C43.8722 24.9371 43.8335 25.092 43.7948 25.2469C43.4463 25.2469 43.5624 25.5179 43.485 25.7115C43.4463 25.8664 43.4463 26.1375 43.3301 26.1762C43.1365 26.2536 43.1365 26.3698 43.1365 26.486C43.1365 26.6021 43.1365 26.7183 43.0978 26.8345L42.8654 26.9119C42.8654 27.1443 42.8654 27.454 42.7493 27.4928C42.3621 27.6476 42.5169 27.9574 42.4395 28.2285C42.4395 28.3834 42.4395 28.5382 42.2072 28.5382C42.2072 28.5382 42.1297 28.6544 42.1297 28.7319C42.1297 28.8868 42.091 29.0416 42.0523 29.1578L41.7812 29.2353V29.8548L41.5102 29.9322C41.3553 30.2807 41.5876 30.7067 41.1617 30.9003C41.1617 30.9003 41.1617 30.9777 41.1617 31.0552V31.5199L40.8519 31.5973L40.7744 32.2169L40.5034 32.2943C40.5034 32.6428 40.4647 32.9913 40.4259 33.3011C40.4259 33.456 40.5034 33.5334 40.697 33.5334C41.8974 33.5334 43.0591 33.5334 44.2594 33.5334C44.3369 33.5334 44.4143 33.5334 44.4918 33.456C44.6079 33.3785 44.6854 33.2236 44.8016 33.1462H44.8403V32.5654C45.1888 32.6041 45.1501 32.3717 45.1888 32.2169C45.1888 32.1007 45.1888 31.9071 45.2662 31.8684C45.5373 31.7909 45.4986 31.5973 45.5373 31.4037C45.5373 31.1714 45.5373 30.939 45.8083 30.8616C45.8083 30.8616 45.8471 30.7454 45.8471 30.7067C45.8471 30.5518 45.8471 30.3969 45.8858 30.242C46.1568 30.242 46.1568 30.0871 46.1568 29.8935C46.1568 29.7774 46.1568 29.5837 46.2343 29.545C46.5441 29.4289 46.5053 29.1578 46.5053 28.9255C46.5053 28.7319 46.5053 28.4995 46.8151 28.5382C46.8151 28.3446 46.8538 28.2285 46.8926 28.0736C46.8926 27.9961 46.9313 27.9187 46.97 27.9187C47.2023 27.9187 47.1636 27.7251 47.1636 27.6089C47.1636 27.4928 47.1636 27.2604 47.2411 27.2604C47.5121 27.183 47.4734 26.9506 47.5121 26.7958C47.5508 26.3311 47.667 26.2536 48.1317 26.2536C51.8877 26.2536 55.605 26.2536 59.3611 26.2536C59.5547 26.2536 59.7483 26.2536 59.9419 26.2536V26.8732L60.2517 26.9506C60.2517 26.9506 60.2517 27.2217 60.3291 27.3379C60.3291 27.4153 60.4066 27.5315 60.4453 27.6089C60.484 27.6864 60.6002 27.7638 60.6389 27.88C60.6776 28.0349 60.6389 28.2285 60.6776 28.3834C60.6776 28.4221 60.7164 28.5382 60.7551 28.5382C61.0261 28.5382 60.9874 28.7706 60.9874 28.9255C60.9874 29.1578 61.0649 29.274 61.2585 29.3127C61.2972 29.545 61.2585 29.8548 61.3746 29.9322C61.6457 30.0871 61.607 30.2807 61.6457 30.5131C61.6457 30.7067 61.6457 30.9777 61.9168 30.9777C62.0329 31.2488 61.8393 31.636 62.2653 31.6747C62.2653 31.9071 62.2653 32.2169 62.3814 32.2943C62.6525 32.4492 62.6138 32.6428 62.6525 32.8364C62.6525 32.9913 62.6912 33.1462 62.7686 33.2624C62.8461 33.3785 63.001 33.456 63.1559 33.6109H67.3379C67.3379 33.6109 67.3379 33.3011 67.3379 33.1849C67.3379 33.1075 67.2604 33.0687 67.2217 32.9913C67.183 32.9139 67.0668 32.8364 67.0281 32.759C66.9506 32.5654 67.0281 32.333 66.757 32.2556C66.757 32.2556 66.7183 32.1394 66.6796 32.1007C66.6796 31.9071 66.6796 31.7522 66.6021 31.5586C66.6021 31.4811 66.5247 31.4037 66.486 31.365C66.4473 31.2875 66.3311 31.2101 66.3311 31.0939C66.2924 30.9003 66.3311 30.6292 66.0213 30.5905V30.0097H65.9051C65.9051 30.0097 65.7502 29.7774 65.7115 29.6612C65.6728 29.5063 65.7115 29.3514 65.6341 29.1965C65.6341 29.1191 65.5566 29.0804 65.5179 29.0029C65.4792 28.9255 65.4017 28.848 65.363 28.7319C65.3243 28.6157 65.363 28.3446 65.2856 28.3446C64.9758 28.2285 65.0145 27.9961 64.9758 27.7638C64.9758 27.7251 64.9371 27.6089 64.8984 27.6089C64.6273 27.6089 64.7048 27.3766 64.666 27.2217C64.6273 26.9894 64.7048 26.6796 64.3563 26.6021C64.3563 26.6021 64.3563 26.5634 64.3563 26.5247C64.3175 26.2924 64.4337 25.9826 64.0465 25.8664C64.1239 25.4792 63.7754 25.2469 63.6593 24.9371C63.6205 24.7822 63.6593 24.6273 63.6205 24.4724C63.6205 24.395 63.5431 24.3175 63.5044 24.3175C63.3108 24.3175 63.3495 24.1626 63.3108 24.0465C63.3108 23.8529 63.3108 23.5818 63.001 23.5818C63.001 23.3495 63.001 23.001 62.8848 22.9623C62.575 22.8074 62.6525 22.575 62.6138 22.3427C62.6138 22.1491 62.6138 21.9168 62.304 21.9555V21.2972C61.9555 21.3359 61.9942 21.1423 61.9555 20.9874C61.9555 20.8713 61.9555 20.6389 61.878 20.6389C61.5683 20.5228 61.6457 20.2904 61.607 20.0581C61.607 19.9032 61.5295 19.6709 61.4908 19.6709C61.2198 19.6322 61.2972 19.4385 61.2972 19.3224C61.2972 19.09 61.2585 18.9352 61.0261 18.9352C60.9487 18.7028 60.9874 18.4318 60.8325 18.3156C60.6776 18.1607 60.6389 18.0058 60.6002 17.8122C60.6002 17.6573 60.6002 17.5024 60.5615 17.3475L60.2904 17.2701L60.213 16.6505L59.9419 16.5731C59.9419 16.5731 59.9419 16.302 59.9419 16.1859C59.9419 16.1084 59.8645 15.9923 59.8258 15.9148C59.787 15.8374 59.6709 15.7212 59.6321 15.6438C59.5934 15.4502 59.5547 15.2178 59.5547 15.0242L59.3224 14.9468V14.3272L59.2062 14.1336ZM95.0242 30.8229H95.1017C95.1017 30.8229 95.1404 30.5518 95.1791 30.3969C95.1791 30.3582 95.2565 30.3195 95.2953 30.242C95.3727 30.1646 95.4114 30.0871 95.4501 30.0097C95.4889 29.8935 95.4889 29.6612 95.5663 29.6225C95.7987 29.5837 95.7599 29.4289 95.7987 29.274C95.7987 29.1191 95.7987 28.8867 96.0697 28.848C96.0697 28.848 96.1472 28.7319 96.1472 28.6544C96.1472 28.1123 96.1472 27.5702 96.1859 27.0281C96.1859 26.8732 96.1472 26.7183 96.1084 26.5634C95.1791 26.5634 94.2885 26.5634 93.3979 26.5634C93.0494 26.5634 92.6234 26.3311 92.3911 26.8345C92.12 26.8345 92.1588 27.0668 92.12 27.2217C92.12 27.4153 92.12 27.6089 92.0813 27.8413L91.849 27.9187C91.7715 28.1898 91.849 28.4995 91.5005 28.577C91.5005 28.577 91.5005 28.6544 91.4618 28.6931C91.3843 28.7706 91.3456 28.848 91.2294 28.8868C91.1133 28.9642 90.8809 28.9642 90.8422 29.0804C90.7648 29.2353 90.726 29.2353 90.5712 29.274C90.3388 29.274 90.1065 29.3514 89.8742 29.3901C89.7193 29.3901 89.5644 29.545 89.4482 29.545C87.7444 29.545 86.0794 29.545 84.3756 29.545C81.6651 29.545 78.9545 29.545 76.244 29.545C76.0891 29.545 75.818 29.5837 75.7406 29.5063C75.5082 29.1965 75.1597 29.3127 74.8887 29.2353C74.8112 29.2353 74.7338 29.1965 74.6563 29.1578C74.5789 29.0804 74.5015 28.9642 74.3853 28.9642C74.1917 28.8868 74.0368 28.7706 73.9594 28.577C73.8819 28.3446 73.7657 28.0736 73.6109 27.9961C73.2624 27.8413 73.3398 27.5702 73.3398 27.3379C73.3398 24.5111 73.3398 21.6844 73.3398 18.8577C73.3398 18.6641 73.3398 18.4705 73.3398 18.2382C73.2236 18.2382 73.1849 18.2382 73.1075 18.2382C72.0232 18.2382 70.939 18.2382 69.8548 18.2382C69.274 18.2382 69.274 18.2382 69.274 18.819C69.274 21.5683 69.274 24.3175 69.274 27.0668C69.274 27.6089 69.3127 28.1898 69.3514 28.7319C69.3514 28.8093 69.3514 28.9255 69.4289 28.9255C69.6612 28.9255 69.6225 29.1191 69.6612 29.274C69.6612 29.4289 69.6225 29.6612 69.8935 29.6999C69.8935 29.6999 69.9322 29.8161 69.971 29.8935C69.971 30.0097 70.0484 30.1646 70.0484 30.2808L70.3195 30.3582L70.242 30.4356L70.7454 31.2875H70.9777L71.0552 31.636H71.3262V31.9458H71.4424L71.7135 32.2169C71.7135 32.2169 71.7522 32.2943 71.7909 32.2943C72.062 32.2943 72.2556 32.3717 72.4105 32.6428C72.4105 32.7202 72.6815 32.6815 72.6815 32.759C72.759 33.03 72.9913 32.9913 73.1849 33.03C73.3011 33.03 73.4947 33.03 73.5334 33.1462C73.727 33.456 74.0368 33.3398 74.2691 33.4172C74.3853 33.4172 74.5789 33.4172 74.6176 33.4947C74.6951 33.727 74.8887 33.6883 75.0823 33.6883C75.4308 33.6883 75.818 33.6883 76.1665 33.6883C80.5808 33.6883 84.9564 33.6883 89.3708 33.6883C89.758 33.6883 90.1839 33.6883 90.5712 33.6883C90.6486 33.6883 90.7648 33.6883 90.8035 33.6496C90.8809 33.3785 91.1133 33.456 91.2682 33.4172C91.6167 33.3398 92.0039 33.4947 92.2362 33.1075C92.2362 33.1075 92.3137 33.1075 92.3524 33.1075C92.7396 33.2236 92.9719 32.8751 93.1655 32.6815C93.3979 32.4879 93.5915 32.4492 93.8238 32.3717L93.9013 32.1007L94.1723 32.0232L94.2498 31.7522H94.5208V31.636L94.7919 31.2875L95.0629 30.9777L95.0242 30.8229ZM96.1472 13.3979V11.1133C95.7599 11.1133 95.8761 10.8422 95.7987 10.6486C95.7599 10.4937 95.7599 10.3388 95.6825 10.1839C95.605 10.0291 95.4889 9.95161 95.3727 9.83544C95.0629 9.71928 95.1791 9.37078 95.0629 9.13844L94.7919 9.061C94.8693 8.78995 94.7144 8.7125 94.4821 8.7125V8.44145H94.3659L94.0174 8.13167L93.7464 8.0155V7.93806C93.7464 7.93806 93.6302 7.78317 93.514 7.70573C93.4753 7.667 93.3979 7.58956 93.3592 7.55084C93.2817 7.47339 93.2043 7.39595 93.1268 7.39595C93.0107 7.35722 92.8558 7.35722 92.7396 7.3185V7.24106C92.7396 7.24106 92.5073 7.08617 92.3911 7.04745C92.2749 7.00873 92.12 7.04745 92.0813 6.97C91.9652 6.6215 91.6554 6.73767 91.423 6.69895C91.2682 6.69895 91.152 6.6215 90.9971 6.58278C90.8809 6.54406 90.7648 6.42789 90.6486 6.42789C90.3775 6.42789 90.0678 6.38917 89.7967 6.38917C86.0019 6.38917 82.2072 6.38917 78.4124 6.38917C77.3282 6.38917 76.244 6.38917 75.1597 6.38917C74.8112 6.38917 74.3853 6.23428 74.1142 6.66023C74.1142 6.66023 73.9981 6.66023 73.9594 6.66023C73.7657 6.66023 73.5721 6.66023 73.3785 6.69895C73.3011 6.69895 73.2624 6.77639 73.1849 6.81511C73.1075 6.85384 73.03 6.93128 72.9138 6.97C72.7977 7.04745 72.5654 7.04745 72.5266 7.16361C72.4492 7.3185 72.4105 7.3185 72.2556 7.35722C72.1394 7.35722 71.9845 7.39595 71.8684 7.47339C71.7522 7.55084 71.6747 7.70572 71.5973 7.82189H71.5199L71.4424 8.0155H71.1713V8.24784L70.4744 8.82867V9.02228L70.1646 9.09972C70.0484 9.33206 70.2033 9.68056 69.8161 9.758C69.8161 9.758 69.8161 9.87417 69.7774 9.95161C69.6999 10.1452 69.6225 10.3001 69.545 10.4937H69.4676V11.0746C69.1965 11.0746 69.1578 11.2294 69.1578 11.4231C69.1578 11.7716 69.1191 12.1201 69.1191 12.4298C69.1191 12.7396 69.1191 13.0881 69.1578 13.3979C70.3582 13.3979 71.5199 13.3979 72.6428 13.3979C72.6815 13.3979 72.759 13.3979 72.7977 13.3979C72.9526 13.1268 73.3011 13.0107 73.1849 12.5847C73.1849 12.4686 73.1849 12.2749 73.1849 12.1588C73.3011 12.1201 73.456 12.0813 73.456 12.0426C73.456 11.6941 73.6883 11.4618 73.8819 11.2682C73.8819 11.2294 73.9594 11.152 73.9981 11.152C74.2304 11.0746 74.4627 11.152 74.5402 10.8035C74.5402 10.8035 74.6563 10.8035 74.7338 10.8035C74.8887 10.8035 75.121 10.8035 75.1597 10.6873C75.2759 10.455 75.4695 10.4937 75.6244 10.4937C80.2323 10.4937 84.879 10.4937 89.4869 10.4937C89.6806 10.4937 89.9129 10.4163 89.9903 10.7261C89.9903 10.7261 90.1065 10.7261 90.1452 10.7648C90.3388 10.8422 90.6486 10.7261 90.6873 11.0746C90.6873 11.0746 90.7648 11.0746 90.8035 11.1133C90.9971 11.152 91.2682 11.1133 91.2682 11.4231C91.2682 11.4231 91.3456 11.4618 91.3456 11.5005C91.423 11.5779 91.5005 11.6554 91.5779 11.7716C91.6167 11.8877 91.6167 12.0039 91.6554 12.1201L91.8877 12.1975C91.8877 12.4686 91.8877 12.7009 91.9652 12.9332C91.9652 13.0107 91.9652 13.0881 92.0426 13.1268C92.1588 13.243 92.2749 13.3204 92.4685 13.4753H95.9923L96.1472 13.3979Z" fill="black"/>
<path d="M207.125 30.5518H206.893C206.893 30.7841 206.893 30.9003 206.622 30.9777C206.428 31.0552 206.35 31.3262 206.196 31.4811C206.196 31.5198 206.118 31.5973 206.079 31.5973C205.925 31.5973 205.847 31.6747 205.847 31.8296C205.847 31.8296 205.77 31.9071 205.731 31.9458C205.653 32.0232 205.537 32.1007 205.421 32.1781C205.344 32.2556 205.228 32.4105 205.111 32.4879C204.995 32.5653 204.84 32.5653 204.685 32.6428C204.608 32.6428 204.492 32.6428 204.492 32.7202C204.453 33.03 204.182 32.9526 203.988 32.9913C203.795 33.03 203.562 32.9913 203.446 33.2623C203.446 33.3011 203.33 33.3398 203.253 33.3398C203.02 33.3398 202.749 33.3398 202.517 33.3785C202.362 33.3785 202.246 33.4947 202.13 33.5721C202.052 33.5721 201.975 33.6496 201.897 33.6496C201.743 33.6496 201.588 33.6496 201.433 33.6496C194.966 33.6496 188.5 33.6496 182.033 33.6496C181.839 33.6496 181.568 33.727 181.452 33.456C181.452 33.456 181.413 33.456 181.375 33.456C180.949 33.456 180.91 33.1849 180.91 32.8364C180.91 28.2285 180.91 23.6205 180.91 19.0126C180.91 18.8577 180.871 18.6254 181.142 18.5866C181.297 18.122 181.684 18.3156 181.955 18.3156C187.106 18.3156 192.294 18.3156 197.444 18.3156C197.638 18.3156 197.87 18.3156 198.064 18.3156C198.219 18.3156 198.296 18.2381 198.374 18.122C198.49 18.0058 198.722 17.9671 198.838 17.9671C199.032 17.8122 199.148 17.7348 199.226 17.6186C199.303 17.5411 199.342 17.3863 199.38 17.2701C199.38 17.1926 199.38 17.0765 199.419 17.0765C199.768 16.999 199.652 16.728 199.69 16.4956C199.69 16.4182 199.768 16.3795 199.806 16.302C199.845 16.2246 199.961 16.1471 199.961 16.031C199.961 15.1016 200 14.211 200.039 13.2817C200.039 13.0881 200.039 12.8945 200.039 12.7009C200.039 12.5073 200.077 12.2362 199.806 12.1588C199.768 12.1588 199.729 12.0426 199.729 11.9652C199.69 11.7715 199.729 11.5779 199.458 11.5005C199.38 11.5005 199.342 11.1907 199.071 11.2294C199.071 10.9971 198.955 10.9197 198.761 10.8809C198.606 10.8809 198.412 10.8809 198.374 10.6486C198.374 10.6486 198.258 10.5712 198.18 10.5712C197.793 10.5712 197.444 10.5712 197.057 10.5712C191.907 10.5712 186.757 10.5712 181.607 10.5712C181.181 10.5712 180.91 10.3001 180.91 9.87416C180.91 8.98355 180.91 8.05422 180.91 7.16361C180.91 7.04744 180.91 6.89255 181.104 6.89255C181.104 6.89255 181.181 6.89255 181.181 6.85383C181.258 6.46661 181.568 6.58277 181.801 6.58277C186.989 6.58277 192.178 6.58277 197.367 6.58277C197.599 6.58277 197.87 6.58277 198.103 6.58277C198.219 6.58277 198.335 6.69894 198.451 6.73766C198.606 6.77638 198.722 6.85383 198.877 6.85383C199.071 6.85383 199.264 6.85383 199.497 6.85383C199.613 6.85383 199.768 6.85383 199.806 7.04744C199.806 7.08616 199.961 7.12488 200.039 7.16361C200.155 7.16361 200.426 7.16361 200.426 7.24105C200.542 7.58955 200.852 7.5121 201.084 7.55083V7.62827C201.084 7.62827 201.278 7.78316 201.394 7.8606C201.394 7.8606 201.471 7.8606 201.471 7.89933C201.471 8.24783 201.82 8.17038 202.014 8.24783C202.052 8.24783 202.091 8.32527 202.168 8.40271L202.323 8.59633C202.323 8.59633 202.44 8.71249 202.478 8.78994C202.478 8.78994 202.517 8.9061 202.556 8.9061C202.904 8.94482 202.865 9.2546 202.865 9.37077L203.291 9.83543V9.91288H203.485V10.4163C203.485 10.4163 203.524 10.5324 203.562 10.5712C204.066 10.726 203.795 11.1907 203.911 11.5005C203.911 11.5005 203.911 11.5779 203.911 11.6167C204.143 11.6167 204.182 11.7715 204.182 12.0039C204.182 13.6689 204.182 15.3727 204.182 17.0378C204.182 17.1926 204.182 17.3475 203.988 17.3863C203.988 17.3863 203.911 17.5024 203.911 17.5411C203.911 17.7735 203.911 18.0058 203.834 18.1994C203.834 18.3156 203.601 18.4318 203.601 18.5479C203.601 18.6641 203.834 18.7028 203.872 18.819C203.911 19.0513 204.105 19.0126 204.221 19.0513C204.376 19.0513 204.569 19.0513 204.569 19.2449C204.569 19.2449 204.647 19.3224 204.724 19.3224C204.879 19.3224 205.034 19.3611 205.189 19.3998V19.6709L205.615 19.7483C205.615 19.7483 205.731 19.7483 205.77 19.7483C205.925 19.9032 206.041 20.0968 206.196 20.2517C206.273 20.3291 206.389 20.3679 206.428 20.4453C206.544 20.5615 206.66 20.6389 206.738 20.7551C206.776 20.7938 206.776 20.8713 206.815 20.91C206.893 21.0649 206.815 21.3359 207.164 21.3746C207.164 21.3746 207.164 21.4908 207.202 21.5295C207.202 21.5683 207.202 21.6844 207.28 21.6844C207.59 21.7231 207.551 21.9942 207.551 22.1878C207.551 22.2265 207.551 22.3427 207.59 22.3427C207.938 22.4201 207.822 22.6912 207.861 22.8848C207.899 23.0784 207.783 23.3495 208.132 23.3882C208.132 23.3882 208.17 23.5044 208.17 23.5818C208.17 25.1307 208.17 26.6796 208.17 28.1897C208.17 28.2285 208.17 28.3446 208.17 28.3446C207.822 28.4995 207.938 28.848 207.861 29.1191C207.861 29.2352 207.861 29.3514 207.667 29.4289C207.59 29.4289 207.551 29.6612 207.551 29.7774C207.551 29.9322 207.551 30.0097 207.357 30.1259C207.241 30.2033 207.202 30.4744 207.125 30.668V30.5518ZM203.059 22.5363C203.059 22.5363 202.633 22.5363 202.594 22.4201C202.478 22.1878 202.323 22.2265 202.168 22.1878C201.975 22.1878 201.781 22.1878 201.549 22.1878C196.244 22.1878 190.939 22.1878 185.673 22.1878C185.131 22.1878 185.053 22.2265 185.053 22.7686C185.053 24.666 185.053 26.5634 185.053 28.4995C185.053 28.8093 184.86 29.1965 185.324 29.3514C185.324 29.6612 185.557 29.5837 185.75 29.5837C188.151 29.5837 190.513 29.5837 192.914 29.5837C195.779 29.5837 198.606 29.5837 201.471 29.5837C201.665 29.5837 201.975 29.6225 202.052 29.5063C202.246 29.1965 202.517 29.274 202.788 29.2352C202.827 29.1578 202.865 29.0029 202.943 29.0029C203.175 28.9255 203.485 28.9642 203.524 28.6157C203.911 28.577 203.795 28.1897 203.911 27.9574C204.105 27.9574 204.182 27.8412 204.182 27.6476C204.182 26.486 204.182 25.363 204.182 24.2014C204.182 23.969 204.143 23.8529 203.911 23.8529L203.834 23.272H203.562L203.485 22.9235H203.408L203.059 22.6138V22.5363Z" fill="black"/>
<path d="M112.643 33.2624C112.643 32.8751 112.72 32.4879 112.72 32.1007C113.146 31.8296 112.914 31.4037 112.991 31.0939C112.991 30.9003 112.953 30.668 113.224 30.5905C113.224 30.5905 113.262 30.4744 113.301 30.3969C113.301 30.1646 113.301 29.8935 113.34 29.6612C113.34 29.5063 113.34 29.274 113.572 29.1965C113.572 29.1965 113.611 29.0804 113.611 29.0029C113.611 28.7706 113.611 28.5382 113.611 28.2672C113.611 28.1123 113.572 27.88 113.843 27.8412C113.843 27.8412 113.921 27.7251 113.921 27.6476C113.921 27.3766 113.921 27.1055 113.959 26.8732C113.959 26.7183 113.959 26.5247 114.192 26.486C114.192 26.486 114.269 26.3698 114.269 26.2924C114.269 26.06 114.269 25.8277 114.269 25.5566C114.269 25.4018 114.23 25.1694 114.501 25.1307C114.501 25.1307 114.579 25.0145 114.579 24.9371C114.579 24.6273 114.618 24.3175 114.656 24.0465C114.656 23.969 114.656 23.8916 114.656 23.8916C115.082 23.7367 114.85 23.3495 114.927 23.0784C114.966 22.8461 114.811 22.5363 115.198 22.4201C115.237 22.4201 115.237 22.1878 115.276 22.0716C115.276 21.8393 115.276 21.6457 115.315 21.4134C115.315 21.2972 115.431 21.2198 115.47 21.1423C115.47 21.0649 115.547 21.0261 115.547 20.9487C115.547 20.6389 115.586 20.3291 115.624 20.0581C115.624 19.9806 115.624 19.8645 115.663 19.8645C115.973 19.7096 115.895 19.4385 115.934 19.2062C115.934 19.0513 115.934 18.8577 115.934 18.7028C115.934 18.6254 115.934 18.5479 115.934 18.5479C116.283 18.4318 116.167 18.122 116.205 17.8896C116.205 17.7348 116.205 17.5411 116.244 17.3863C116.244 17.3088 116.36 17.2314 116.399 17.1539C116.438 17.0765 116.515 16.999 116.515 16.9216C116.515 16.6118 116.515 16.302 116.554 16.031C116.554 15.9535 116.554 15.8374 116.592 15.8374C116.902 15.7987 116.786 15.5663 116.825 15.3727C116.825 15.1791 116.825 14.9468 116.864 14.7532C116.864 14.5983 116.863 14.4434 117.057 14.4047C117.096 14.4047 117.135 14.2885 117.135 14.211C117.135 13.9013 117.135 13.6302 117.173 13.3204C117.173 13.243 117.173 13.1268 117.173 13.1268C117.522 13.0107 117.406 12.7009 117.444 12.4685C117.444 12.3137 117.444 12.12 117.483 11.9652C117.483 11.8877 117.483 11.8103 117.483 11.8103C117.832 11.7328 117.715 11.423 117.754 11.1907C117.754 11.0358 117.754 10.8422 117.754 10.6873C117.754 10.6099 117.87 10.4937 117.909 10.4163C117.909 10.3388 117.986 10.3001 118.025 10.2227C118.025 9.91288 118.064 9.60311 118.103 9.33205C118.103 9.25461 118.103 9.13844 118.141 9.09972C118.412 9.02227 118.374 8.78994 118.374 8.55761C118.374 8.32527 118.374 8.09294 118.374 7.89933C118.374 7.70572 118.335 7.47339 118.606 7.39594C118.683 7.39594 118.683 7.16361 118.683 7.04744C118.722 6.42789 118.722 6.42789 119.342 6.42789C120.271 6.42789 121.2 6.42789 122.168 6.42789C122.711 6.42789 122.711 6.42789 122.711 7.00872C122.711 10.4937 122.711 13.9787 122.711 17.4637C122.711 18.3156 122.633 18.1607 123.408 18.1607C126.931 18.1607 130.455 18.1607 134.017 18.1607C134.172 18.1607 134.288 18.1607 134.482 18.1607V22.1491C134.288 22.1491 134.095 22.1491 133.94 22.1491C130.416 22.1491 126.931 22.1491 123.408 22.1491C122.672 22.1491 122.749 22.0716 122.749 22.8074C122.749 26.1375 122.749 29.5063 122.749 32.8364C122.749 33.2624 122.478 33.5334 122.052 33.5334C119.071 33.5334 116.128 33.5334 113.146 33.5334C112.953 33.5334 112.759 33.6108 112.643 33.3398C112.643 33.2624 112.449 33.2624 112.333 33.2236L112.643 33.2624Z" fill="black"/>
<path d="M161.781 29.6225V33.1849C161.781 33.1849 161.51 33.4172 161.394 33.4947C161.355 33.4947 161.278 33.5334 161.2 33.5334C159.613 33.5334 157.986 33.5334 156.399 33.5334C156.321 33.5334 156.244 33.456 156.128 33.3785C156.05 33.3785 156.012 33.3011 155.934 33.2623C155.818 33.2623 155.702 33.2623 155.586 33.2623C155.47 33.2623 155.315 33.2623 155.276 33.2236C155.044 32.9913 154.773 32.9138 154.463 32.9138C154.385 32.5653 154.076 32.6428 153.843 32.5653C153.766 32.5653 153.727 32.4105 153.65 32.3717C153.533 32.2556 153.456 32.1394 153.34 32.062C153.262 31.9845 153.146 31.9845 153.03 31.9458C152.914 31.8683 152.759 31.7909 152.643 31.7135V31.636H152.527L151.946 31.0552C151.946 31.0552 151.752 30.8616 151.636 30.7841C151.597 30.7454 151.52 30.7067 151.481 30.668C151.326 30.5905 151.133 30.5905 151.055 30.3195C150.978 30.1259 150.707 30.0484 150.552 29.8935C150.474 29.7774 150.436 29.6225 150.358 29.5063C150.358 29.4289 150.358 29.3127 150.319 29.3127C149.971 29.2352 150.087 28.9642 150.087 28.7706C150.087 21.5683 150.087 14.4047 150.087 7.20233C150.087 7.00872 150.01 6.77638 150.319 6.73766C150.436 6.273 150.823 6.46661 151.094 6.46661C151.907 6.46661 152.72 6.46661 153.533 6.46661C153.688 6.46661 153.843 6.46661 154.037 6.46661C154.037 6.77638 154.076 7.04744 154.076 7.35722C154.076 13.6689 154.076 19.9806 154.076 26.3311C154.076 26.6409 154.076 26.9506 154.076 27.2217C154.076 27.3766 154.076 27.5702 154.308 27.6089C154.308 27.6089 154.385 27.7251 154.385 27.7638C154.385 27.9187 154.385 28.0736 154.501 28.151L154.85 28.5382H154.811L155.082 28.6157L155.16 28.8867H155.237C155.237 28.8867 155.431 29.0804 155.508 29.1578C155.547 29.1965 155.624 29.2352 155.702 29.2352C156.012 29.274 156.321 29.2352 156.554 29.5063C156.631 29.5837 156.864 29.5837 157.018 29.5837C158.412 29.5837 159.768 29.5837 161.162 29.5837C161.355 29.5837 161.588 29.5837 161.82 29.5837L161.781 29.6225Z" fill="black"/>
<path d="M176.651 29.274L176.573 29.8548C176.367 29.9322 176.25 30.1129 176.225 30.3969L175.837 30.8228H175.876L175.605 30.939V31.2101C175.605 31.2101 175.179 31.2488 175.257 31.5586L174.947 31.636V31.9071H174.869L174.482 32.1781C174.289 32.2556 174.017 32.2943 173.901 32.5653C173.901 32.6041 173.669 32.5653 173.63 32.6428C173.475 33.0687 173.049 32.8751 172.778 32.9913H172.662C172.43 33.3785 172.043 33.2236 171.733 33.2623C171.539 33.2623 171.268 33.2236 171.152 33.4947C171.152 33.5334 170.997 33.5334 170.92 33.5334C169.448 33.5334 167.938 33.5334 166.467 33.5334C166.35 33.5334 166.273 33.456 166.157 33.3785C166.041 33.3398 165.963 33.2623 165.808 33.1849V29.5063C166.002 29.5063 166.196 29.5063 166.35 29.5063C167.706 29.5063 169.1 29.5063 170.455 29.5063C170.726 29.5063 171.075 29.5837 171.268 29.274C171.268 29.1965 171.462 29.1965 171.539 29.1965C171.694 29.1965 171.81 29.1965 171.888 29.0029C171.888 28.9255 172.159 28.8867 172.314 28.8093C172.391 28.8093 172.469 28.7318 172.469 28.6931C172.507 28.4995 172.546 28.2672 172.817 28.1897C172.856 28.1897 172.856 27.9961 172.895 27.88C173.127 27.88 173.166 27.7251 173.166 27.5315C173.166 27.2217 173.166 26.8732 173.166 26.5634C173.166 20.0581 173.166 13.5915 173.166 7.08615C173.166 7.00871 173.166 6.96999 173.166 6.89254C173.166 6.4666 173.243 6.38916 173.708 6.35043C174.714 6.35043 175.721 6.35043 176.689 6.35043C177.115 6.35043 177.193 6.42788 177.193 6.85382C177.193 13.7851 177.193 20.7551 177.193 27.6863C177.193 27.88 177.193 28.0736 176.96 28.2285C176.844 28.3059 176.844 28.6544 176.844 28.8867C176.844 29.0803 176.805 29.2352 176.573 29.1965L176.651 29.274Z" fill="black"/>
<path d="M142.304 33.2236V32.759C142.304 24.2401 142.304 15.7212 142.304 7.20233C142.304 6.66022 142.536 6.42789 143.078 6.42789C143.969 6.42789 144.86 6.42789 145.75 6.42789C146.292 6.42789 146.331 6.46661 146.331 7.00872C146.331 10.8035 146.331 14.637 146.331 18.4318C146.331 23.2333 146.331 28.0349 146.331 32.8364C146.331 33.03 146.447 33.3398 146.06 33.3398C145.905 33.727 145.557 33.5721 145.286 33.5721C144.55 33.5721 143.775 33.5721 143.04 33.5721C142.885 33.5721 142.73 33.5721 142.652 33.3785C142.652 33.3011 142.459 33.3011 142.343 33.2236H142.304Z" fill="black"/>
</g>
<defs>
<clipPath id="clip0_3006_3407">
<rect width="208.209" height="40" fill="white"/>
</clipPath>
</defs>
</svg>
