<svg width="41" height="40" viewBox="0 0 41 40" fill="none" xmlns="http://www.w3.org/2000/svg">
<path d="M39.4474 20C39.4474 30.4642 30.9642 38.9474 20.5 38.9474C10.0358 38.9474 1.55264 30.4642 1.55264 20C1.55264 9.53581 10.0358 1.05265 20.5 1.05265C30.9642 1.05265 39.4474 9.53581 39.4474 20Z" fill="#F5F8FA"/>
<mask id="mask0_2934_26265" style="mask-type:alpha" maskUnits="userSpaceOnUse" x="1" y="1" width="39" height="38">
<path d="M39.4474 20C39.4474 30.4642 30.9642 38.9474 20.5 38.9474C10.0358 38.9474 1.55264 30.4642 1.55264 20C1.55264 9.53581 10.0358 1.05265 20.5 1.05265C30.9642 1.05265 39.4474 9.53581 39.4474 20Z" fill="#F5F8FA"/>
</mask>
<g mask="url(#mask0_2934_26265)">
<path d="M20.5 12.6316C20.2208 12.6316 19.9531 12.5207 19.7557 12.3233C19.5583 12.1259 19.4474 11.8581 19.4474 11.579V4.21054C19.4474 3.93136 19.5583 3.66362 19.7557 3.46622C19.9531 3.26881 20.2208 3.15791 20.5 3.15791C20.7792 3.15791 21.0469 3.26881 21.2443 3.46622C21.4418 3.66362 21.5527 3.93136 21.5527 4.21054V11.579C21.5527 11.8581 21.4418 12.1259 21.2443 12.3233C21.0469 12.5207 20.7792 12.6316 20.5 12.6316" fill="#CCD6DD"/>
<path d="M13.5706 17.3684C13.4627 17.3684 13.3554 17.3517 13.2527 17.3189L4.78846 14.6442C4.53129 14.5528 4.31961 14.3652 4.19799 14.1208C4.07637 13.8765 4.0543 13.5945 4.13642 13.3343C4.21854 13.074 4.39844 12.8557 4.63826 12.7254C4.87808 12.5951 5.15909 12.563 5.42214 12.6357L13.8874 15.3115C14.1289 15.3856 14.3356 15.5442 14.4698 15.7582C14.604 15.9722 14.6566 16.2273 14.6182 16.4769C14.5797 16.7266 14.4527 16.954 14.2603 17.1177C14.068 17.2814 13.8231 17.3704 13.5706 17.3684Z" fill="#CCD6DD"/>
<path d="M27.9126 17.0621C27.6598 17.0607 27.4159 16.9685 27.2254 16.8022C27.035 16.6359 26.9107 16.4067 26.8752 16.1564C26.8397 15.906 26.8954 15.6513 27.0321 15.4386C27.1689 15.2259 27.3775 15.0695 27.62 14.9979L34.7253 12.9369C34.9933 12.8593 35.2811 12.8913 35.5255 13.0259C35.7699 13.1606 35.9508 13.3868 36.0284 13.6548C36.106 13.9228 36.074 14.2106 35.9394 14.455C35.8047 14.6994 35.5785 14.8803 35.3105 14.9579L28.2053 17.02C28.1102 17.0479 28.0117 17.0621 27.9126 17.0621" fill="#CCD6DD"/>
<path d="M30.0188 32.8076C29.8546 32.8077 29.6926 32.7694 29.5458 32.6958C29.3991 32.6221 29.2716 32.5151 29.1735 32.3834L23.4272 24.6645C23.3414 24.5538 23.2786 24.4272 23.2423 24.292C23.2061 24.1568 23.1972 24.0158 23.2161 23.8771C23.235 23.7384 23.2814 23.6048 23.3526 23.4843C23.4237 23.3638 23.5182 23.2586 23.6305 23.1751C23.7428 23.0915 23.8706 23.0311 24.0065 22.9975C24.1424 22.964 24.2836 22.9578 24.4219 22.9795C24.5602 23.0011 24.6928 23.0501 24.8119 23.1237C24.931 23.1972 25.0343 23.2937 25.1156 23.4076L30.8619 31.1266C30.9784 31.283 31.0491 31.4688 31.0661 31.6631C31.0831 31.8574 31.0458 32.0526 30.9584 32.2269C30.8709 32.4013 30.7368 32.5479 30.5709 32.6504C30.405 32.7529 30.2138 32.8074 30.0188 32.8076Z" fill="#CCD6DD"/>
<path d="M10.7623 32.72C10.5702 32.7197 10.3819 32.6668 10.2178 32.5672C10.0536 32.4675 9.91986 32.3249 9.83096 32.1547C9.74206 31.9844 9.70141 31.7932 9.71343 31.6015C9.72544 31.4098 9.78965 31.2251 9.89911 31.0673L15.2938 23.3042C15.453 23.075 15.6966 22.9184 15.9712 22.8688C16.2458 22.8193 16.5289 22.8808 16.7581 23.04C16.9873 23.1991 17.1439 23.4428 17.1934 23.7174C17.243 23.9919 17.1814 24.275 17.0223 24.5042L11.6275 32.2673C11.5309 32.4073 11.4016 32.5217 11.2508 32.6005C11.1001 32.6794 10.9324 32.7204 10.7623 32.72Z" fill="#CCD6DD"/>
<path d="M5.23687 29.5389C4.77371 29.5389 4.34845 29.2305 4.22108 28.7621L1.91898 20.2747C1.87969 20.1404 1.8676 19.9995 1.88342 19.8604C1.89923 19.7213 1.94263 19.5868 2.01107 19.4647C2.07952 19.3426 2.17163 19.2353 2.28203 19.1492C2.39242 19.0632 2.51888 19 2.65399 18.9633C2.78911 18.9267 2.93017 18.9174 3.06892 18.936C3.20768 18.9546 3.34133 19.0006 3.46207 19.0715C3.5828 19.1423 3.68819 19.2365 3.77207 19.3486C3.85595 19.4607 3.91663 19.5884 3.95056 19.7242L6.25371 28.2105C6.29589 28.3667 6.30155 28.5305 6.27024 28.6892C6.23893 28.8479 6.1715 28.9973 6.07318 29.1257C5.97485 29.2542 5.84827 29.3583 5.70324 29.4299C5.55822 29.5016 5.39864 29.5389 5.23687 29.5389" fill="#CCD6DD"/>
<path d="M24.7106 36.842H15.2369C14.9577 36.842 14.69 36.7311 14.4925 36.5337C14.2951 36.3363 14.1842 36.0686 14.1842 35.7894C14.1842 35.5102 14.2951 35.2425 14.4925 35.0451C14.69 34.8477 14.9577 34.7368 15.2369 34.7368H24.7106C24.9897 34.7368 25.2575 34.8477 25.4549 35.0451C25.6523 35.2425 25.7632 35.5102 25.7632 35.7894C25.7632 36.0686 25.6523 36.3363 25.4549 36.5337C25.2575 36.7311 24.9897 36.842 24.7106 36.842" fill="#CCD6DD"/>
<path d="M35.3695 29.6052C35.2098 29.6054 35.0521 29.5692 34.9084 29.4994C34.7648 29.4296 34.6389 29.328 34.5403 29.2023C34.4417 29.0766 34.373 28.9302 34.3394 28.774C34.3058 28.6179 34.3082 28.4561 34.3463 28.301L36.5832 19.2221C36.6155 19.0871 36.6742 18.9599 36.7559 18.8477C36.8376 18.7355 36.9407 18.6406 37.0592 18.5684C37.1777 18.4962 37.3093 18.4481 37.4465 18.427C37.5837 18.4059 37.7237 18.4121 37.8584 18.4452C37.9932 18.4784 38.12 18.5379 38.2317 18.6203C38.3434 18.7026 38.4377 18.8063 38.5092 18.9253C38.5806 19.0442 38.6279 19.1762 38.6481 19.3134C38.6684 19.4507 38.6614 19.5907 38.6274 19.7252L36.3905 28.8042C36.3342 29.0325 36.203 29.2354 36.018 29.3805C35.8329 29.5257 35.6047 29.6048 35.3695 29.6052Z" fill="#CCD6DD"/>
<path d="M33.459 9.14416C33.2742 9.14425 33.0926 9.0956 32.9327 9.00311L24.9716 4.39785C24.7298 4.25798 24.5535 4.0278 24.4815 3.75795C24.4094 3.48809 24.4475 3.20067 24.5874 2.9589C24.7273 2.71713 24.9574 2.54083 25.2273 2.46878C25.4971 2.39673 25.7846 2.43482 26.0263 2.57469L33.9874 7.17995C34.1882 7.29591 34.3451 7.47493 34.4337 7.68922C34.5224 7.90351 34.5378 8.14106 34.4775 8.36499C34.4173 8.58893 34.2848 8.7867 34.1006 8.92759C33.9164 9.06849 33.6909 9.14462 33.459 9.14416Z" fill="#CCD6DD"/>
<path d="M7.34319 9.14416C7.12007 9.14493 6.90249 9.07472 6.7219 8.94367C6.54132 8.81262 6.40711 8.62753 6.33866 8.41517C6.27022 8.2028 6.2711 7.97417 6.34117 7.76234C6.41124 7.55051 6.54687 7.36645 6.72845 7.23679L13.2421 2.56521C13.469 2.40245 13.7512 2.33647 14.0266 2.38177C14.163 2.40421 14.2937 2.45328 14.4111 2.52621C14.5286 2.59913 14.6305 2.69448 14.7111 2.80679C14.7917 2.91911 14.8494 3.04619 14.8808 3.1808C14.9123 3.31541 14.917 3.45489 14.8945 3.5913C14.8721 3.7277 14.823 3.85835 14.7501 3.97579C14.6772 4.09323 14.5818 4.19515 14.4695 4.27574L7.95582 8.94732C7.77716 9.07527 7.56294 9.1441 7.34319 9.14416Z" fill="#CCD6DD"/>
<path d="M28.3874 15.28L20.8 9.92948C20.6208 9.80329 20.4067 9.73609 20.1874 9.73722C19.9682 9.73836 19.7548 9.80776 19.5769 9.9358L12.0327 15.3747C11.8563 15.502 11.7237 15.6807 11.653 15.8863C11.5823 16.0919 11.577 16.3144 11.6379 16.5232L14.2695 25.5568C14.3331 25.7757 14.466 25.968 14.6482 26.1048C14.8304 26.2417 15.0521 26.3157 15.28 26.3158H24.7106C25.1632 26.3158 25.5632 26.0263 25.7085 25.599L28.779 16.4758C28.8512 16.2609 28.8521 16.0284 28.7815 15.813C28.711 15.5975 28.5727 15.4106 28.3874 15.28Z" fill="#292F33"/>
<path d="M8.68318 6.70312C8.58462 6.58215 8.46038 6.48463 8.31946 6.41763C8.17854 6.35063 8.02448 6.31583 7.86844 6.31575H4.71055C4.48212 6.31575 4.26107 6.39049 4.07791 6.52733L-0.132612 9.68523C-0.26313 9.78317 -0.369038 9.91016 -0.441941 10.0562C-0.514843 10.2021 -0.552735 10.3631 -0.552612 10.5263V18.5094C-0.552612 18.8168 -0.417875 19.1094 -0.184191 19.3094L2.22739 21.3705C2.34578 21.4712 2.48494 21.5444 2.63492 21.5851C2.78491 21.6258 2.94202 21.6329 3.09506 21.6058C3.24809 21.5788 3.39327 21.5183 3.52022 21.4287C3.64718 21.339 3.75278 21.2225 3.82949 21.0873L7.38212 14.7715C7.43476 14.6758 7.4737 14.5726 7.49581 14.4652L8.90002 7.57891C8.96318 7.26944 8.88318 6.94733 8.68318 6.70312Z" fill="#292F33"/>
<path d="M26.5368 -0.155841C26.496 -0.346917 26.3866 -0.516428 26.2293 -0.63239C26.0721 -0.748353 25.8778 -0.802749 25.6832 -0.785315L14.8495 0.311527C14.5411 0.343106 14.3021 0.494685 14.2032 0.78837C14.119 0.971528 13.3 2.47258 12.7463 3.47995C12.6853 3.59067 12.6518 3.71442 12.6486 3.84079C12.6454 3.96716 12.6726 4.09245 12.7279 4.20612C12.7832 4.31979 12.865 4.41853 12.9664 4.49402C13.0677 4.56952 13.1858 4.61956 13.3105 4.63995L20.0211 5.73574C20.1057 5.75052 20.1922 5.75052 20.2768 5.73574L26.6811 4.68311C26.7859 4.66612 26.8862 4.6281 26.9759 4.57134C27.0657 4.51459 27.143 4.44026 27.2033 4.35284C27.2636 4.26542 27.3055 4.16672 27.3267 4.06265C27.3478 3.95859 27.3477 3.85133 27.3263 3.74732L26.5368 -0.155841Z" fill="#292F33"/>
<path d="M41.2337 18.5694L36.9358 7.69258C36.8811 7.55282 36.7876 7.43155 36.6665 7.34299C36.5453 7.25444 36.4014 7.20226 36.2516 7.19258L32.7421 6.97258C32.6223 6.96528 32.5023 6.98506 32.3912 7.03043C32.28 7.0758 32.1805 7.14561 32.1 7.23468C32.0206 7.32377 31.9627 7.42988 31.9308 7.54484C31.8989 7.65981 31.8937 7.78058 31.9158 7.89784L33.1442 14.422C33.1621 14.506 33.1953 14.5859 33.2421 14.6578C34.8126 17.2936 36.5611 20.2378 36.8011 20.7431C36.8263 20.8315 36.8674 20.8273 36.9211 20.902C37.0695 21.1084 37.3126 21.0526 37.5663 21.0526H37.5726C37.8347 21.0526 37.9674 21.2157 40.9211 19.3484C41.2421 19.1452 41.3737 18.922 41.2337 18.5694Z" fill="#292F33"/>
<path d="M16.6579 35.6126L11.9211 30.3495C11.8579 30.2794 11.7827 30.2213 11.699 30.1779C5.50424 26.9474 5.3895 26.9084 5.31371 26.8831C5.23179 26.8564 5.14621 26.8426 5.06003 26.8421C4.3474 26.8421 4.27055 26.9389 3.32845 31.0063C3.31562 31.0594 3.30857 31.1138 3.3074 31.1684L3.22003 35.5105C3.21729 35.6514 3.25236 35.7905 3.3216 35.9132C3.39084 36.0359 3.49171 36.1379 3.61371 36.2084L11.3327 40.6821C11.476 40.7661 11.6423 40.8025 11.8076 40.7861C11.9729 40.7696 12.1287 40.7011 12.2527 40.5905L16.5948 36.7305C16.7527 36.5916 16.8474 36.3947 16.859 36.1853C16.8705 35.9753 16.7982 35.7693 16.6579 35.6126Z" fill="#292F33"/>
<path d="M37.3358 30.9936L36.0632 27.6157C36.0257 27.5152 35.9681 27.4234 35.8938 27.3459C35.8195 27.2685 35.7302 27.2071 35.6313 27.1655C35.5324 27.1239 35.426 27.1029 35.3187 27.104C35.2114 27.105 35.1055 27.128 35.0074 27.1715L28.6042 29.9789C28.4925 30.0272 28.3937 30.1012 28.3158 30.1947L23.8421 35.5452C23.7751 35.6253 23.7246 35.7179 23.6935 35.8176C23.6625 35.9173 23.6516 36.0222 23.6614 36.1261C23.6712 36.2301 23.7015 36.3311 23.7506 36.4233C23.7997 36.5155 23.8666 36.597 23.9474 36.6631C28.9906 40.7894 29.0969 40.7894 29.4474 40.7894C29.7411 40.7894 29.8516 40.7894 36.2727 36.7189C36.3678 36.6589 36.449 36.5791 36.5107 36.4851C36.5725 36.391 36.6133 36.2848 36.6306 36.1736L37.3769 31.3936C37.3977 31.259 37.3835 31.1213 37.3358 30.9936Z" fill="#292F33"/>
</g>
</svg>
