<svg width="207" height="205" viewBox="0 0 207 205" fill="none" xmlns="http://www.w3.org/2000/svg">
<g clip-path="url(#clip0_3060_25466)">
<path d="M158.115 38.8256C175.128 53.9185 182.013 109.62 177.504 134.128C172.994 158.637 151.011 181.676 131.059 185.876C111.107 190.075 75.3864 175.586 57.792 159.325C40.1976 143.065 22.5539 107.607 25.4929 88.3145C28.432 69.0222 53.3226 51.8194 75.4263 43.5713C97.53 35.3231 141.102 23.7328 158.115 38.8256C175.128 53.9185 182.013 109.62 177.504 134.128L158.115 38.8256Z" fill="#F3F3F4"/>
<circle cx="167.949" cy="159.949" r="8.52018" fill="#E7E8E9"/>
<circle cx="182.119" cy="154.119" r="2.69058" fill="#CFD1D4"/>
</g>
<circle cx="48.4307" cy="57.8472" r="5.38117" fill="#E7E8E9"/>
<circle cx="32.9596" cy="50.8964" r="3.31166" stroke="#9FA3A9"/>
<circle cx="51.3457" cy="40.5828" r="2.9148" fill="#E7E8E9"/>
<circle cx="118.29" cy="46.4121" r="2.9148" fill="#CFD1D4"/>
<circle cx="57.1753" cy="179.597" r="2.9148" fill="#CFD1D4"/>
<circle cx="139.135" cy="187.463" r="2.4148" stroke="#9FA3A9"/>
<circle cx="118.29" cy="31.1658" r="6.50224" fill="#E7E8E9"/>
<circle cx="28.2446" cy="148.667" r="5.15695" fill="#E7E8E9"/>
<circle cx="165.235" cy="35.8439" r="2.92857" stroke="#CFD1D4"/>
<g filter="url(#filter0_d_3060_25466)">
<g clip-path="url(#clip1_3060_25466)">
<path d="M164.733 60H52.6624C51.034 60 49.7144 61.3143 49.7144 62.9429V162.286C49.7144 168.913 55.0869 174.286 61.7144 174.286H155.681C162.309 174.286 167.681 168.913 167.681 162.286V62.9429C167.681 61.3143 166.359 60 164.733 60ZM82.2459 65.9906C84.0263 65.9906 85.4715 67.4305 85.4715 69.2161C85.4715 70.9965 84.0263 72.4365 82.2459 72.4365C80.4603 72.4365 79.0176 70.9965 79.0176 69.2161C79.0176 67.4305 80.4603 65.9906 82.2459 65.9906ZM71.8384 65.9852C73.6161 65.9852 75.0641 67.4305 75.0641 69.2161C75.0641 70.9965 73.6162 72.4418 71.8384 72.4418C70.0554 72.4418 68.6128 70.9965 68.6128 69.2161C68.6128 67.4305 70.0554 65.9852 71.8384 65.9852ZM61.4258 65.9852C63.2114 65.9852 64.654 67.4305 64.654 69.2161C64.654 70.9965 63.2114 72.4365 61.4257 72.4365C59.648 72.4365 58.2027 70.9965 58.2027 69.2161C58.2027 67.4305 59.6481 65.9852 61.4258 65.9852ZM158.465 153.064C158.465 159.692 153.092 165.064 146.465 165.064H70.9305C64.3031 165.064 58.9305 159.692 58.9305 153.064V90.4324C58.9305 83.805 64.3031 78.4324 70.9305 78.4324H146.465C153.092 78.4324 158.465 83.805 158.465 90.4324L158.465 153.064Z" fill="#CFD1D4"/>
<path d="M70.5922 141.987H146.804C148.652 141.987 150.171 140.474 150.171 138.62V90.1255C150.171 88.277 148.652 86.7637 146.804 86.7637H70.5922C68.7436 86.7637 67.2251 88.277 67.2251 90.1255V138.62C67.2251 140.474 68.7436 141.987 70.5922 141.987ZM98.7119 104.081C104.226 98.5718 113.173 98.5718 118.689 104.081C124.203 109.595 124.203 118.544 118.689 124.058C113.173 129.566 104.229 129.572 98.7119 124.058C93.1978 118.544 93.1978 109.595 98.7119 104.081Z" fill="#E7E8E9"/>
<path d="M67.2251 154.01C67.2251 152.57 68.3876 151.413 69.8171 151.413H101.822C101.516 152.225 101.325 153.094 101.325 154.01C101.325 154.921 101.516 155.785 101.822 156.597H69.8171C68.3876 156.597 67.2251 155.434 67.2251 154.01ZM150.171 154.01C150.171 155.434 149.011 156.597 147.579 156.597H115.576C115.882 155.785 116.071 154.921 116.071 154.01C116.071 153.094 115.882 152.225 115.576 151.413H147.579C149.011 151.413 150.171 152.57 150.171 154.01ZM112.505 151.413C113.013 152.157 113.306 153.047 113.306 154.01C113.306 154.963 113.013 155.864 112.505 156.597C111.68 157.817 110.282 158.618 108.698 158.618C107.114 158.618 105.721 157.817 104.891 156.597C104.369 155.835 104.09 154.934 104.09 154.01C104.09 153.047 104.388 152.157 104.891 151.413C105.721 150.198 107.114 149.397 108.698 149.397C110.282 149.397 111.68 150.198 112.505 151.413Z" fill="#CFD1D4"/>
<path d="M110.973 117.748L104.655 121.439V106.693L110.973 110.38L117.296 114.066L110.973 117.748Z" fill="#CFD1D4"/>
</g>
</g>
<g filter="url(#filter1_d_3060_25466)">
<path d="M182.667 74.119C182.667 78.3926 179.202 81.8571 174.929 81.8571H157.072C152.798 81.8571 149.333 78.3926 149.333 74.119V53.8809C149.333 49.6073 152.798 46.1428 157.072 46.1428H174.929C179.202 46.1428 182.667 49.6073 182.667 53.8809V74.119ZM196.386 49.4603C196.752 49.8908 196.953 50.4373 196.953 51.0023V76.9971C196.953 78.3121 195.887 79.3781 194.572 79.3781C194.007 79.3781 193.46 79.1771 193.03 78.8114L185.048 72.0259V55.9713L193.03 49.188C194.032 48.3364 195.534 48.4583 196.386 49.4603Z" fill="#CFD1D4"/>
</g>
<defs>
<filter id="filter0_d_3060_25466" x="29.7144" y="50" width="157.967" height="154.286" filterUnits="userSpaceOnUse" color-interpolation-filters="sRGB">
<feFlood flood-opacity="0" result="BackgroundImageFix"/>
<feColorMatrix in="SourceAlpha" type="matrix" values="0 0 0 0 0 0 0 0 0 0 0 0 0 0 0 0 0 0 127 0" result="hardAlpha"/>
<feOffset dy="10"/>
<feGaussianBlur stdDeviation="10"/>
<feComposite in2="hardAlpha" operator="out"/>
<feColorMatrix type="matrix" values="0 0 0 0 0 0 0 0 0 0 0 0 0 0 0 0 0 0 0.08 0"/>
<feBlend mode="normal" in2="BackgroundImageFix" result="effect1_dropShadow_3060_25466"/>
<feBlend mode="normal" in="SourceGraphic" in2="effect1_dropShadow_3060_25466" result="shape"/>
</filter>
<filter id="filter1_d_3060_25466" x="134.572" y="29.4285" width="77.1428" height="77.1428" filterUnits="userSpaceOnUse" color-interpolation-filters="sRGB">
<feFlood flood-opacity="0" result="BackgroundImageFix"/>
<feColorMatrix in="SourceAlpha" type="matrix" values="0 0 0 0 0 0 0 0 0 0 0 0 0 0 0 0 0 0 127 0" result="hardAlpha"/>
<feOffset dy="4"/>
<feGaussianBlur stdDeviation="5"/>
<feComposite in2="hardAlpha" operator="out"/>
<feColorMatrix type="matrix" values="0 0 0 0 0 0 0 0 0 0 0 0 0 0 0 0 0 0 0.08 0"/>
<feBlend mode="normal" in2="BackgroundImageFix" result="effect1_dropShadow_3060_25466"/>
<feBlend mode="normal" in="SourceGraphic" in2="effect1_dropShadow_3060_25466" result="shape"/>
</filter>
<clipPath id="clip0_3060_25466">
<rect width="200" height="200" fill="white"/>
</clipPath>
<clipPath id="clip1_3060_25466">
<rect x="49.7144" y="60" width="117.967" height="114.286" rx="12" fill="white"/>
</clipPath>
</defs>
</svg>
