<svg width="41" height="40" viewBox="0 0 41 40" fill="none" xmlns="http://www.w3.org/2000/svg">
<path d="M16.0648 18.2765C16.0648 18.7589 16.0824 19.2353 16.1177 19.7059C13.0942 19.4942 9.97064 18.7295 7.22363 17.453C7.47064 11.1648 10.5118 5.60594 15.1354 1.95887C16.8353 1.453 18.6353 1.17651 20.5 1.17651C21.8589 1.17651 23.1824 1.32357 24.4589 1.60006C19.3647 5.38241 16.0648 11.4471 16.0648 18.2765Z" fill="#FE9967"/>
<path d="M15.1354 1.95886C10.5118 5.60593 7.47064 11.1648 7.22363 17.453C5.45892 16.6294 3.85887 15.5941 2.54123 14.3471C4.41185 8.40593 9.14709 3.74123 15.1354 1.95886Z" fill="#FFAC88"/>
<path d="M31.7118 4.90586C31.1648 5.31174 30.6412 5.74703 30.1354 6.20587C30.0647 6.27057 29.9883 6.33526 29.9177 6.40585C28.6412 7.57058 27.5119 8.89411 26.5647 10.3529C24.9001 12.9176 23.7765 15.8647 23.3824 19.0412C21.253 19.6882 18.7236 19.8941 16.1177 19.7058C16.0824 19.2353 16.0648 18.7588 16.0648 18.2764C16.0648 11.447 19.3648 5.38233 24.4589 1.59998C27.1353 2.17055 29.5942 3.3235 31.7118 4.90586Z" fill="#EF8759"/>
<path d="M26.753 25.4823C26.3589 25.6824 25.9647 25.8823 25.553 26.0588C18.7412 29.0647 7.94128 26.9529 1.92953 22.947C1.77658 21.9824 1.67648 21.0059 1.67648 20C1.67648 18.0294 1.98238 16.1353 2.54124 14.347C3.85888 15.5941 5.45894 16.6294 7.22364 17.4529C9.97065 18.7294 13.0942 19.4941 16.1177 19.7059C18.7236 19.8941 21.253 19.6882 23.3824 19.0412C23.3766 19.0706 23.3707 19.0941 23.3648 19.1235C24.8824 21.0765 26.006 23.2294 26.753 25.4823Z" fill="#EFD96A"/>
<path d="M27.7059 34.147C21.3765 36.4 12.8529 36.1235 6.95888 33.0529C4.34119 30.3411 2.54711 26.8411 1.9295 22.947C7.94125 26.9529 18.7412 29.0647 25.553 26.0588C25.9647 25.8823 26.3589 25.6823 26.753 25.4823C27.6765 28.2823 27.9765 31.2353 27.7059 34.147Z" fill="#FFF48B"/>
<path d="M27.7059 34.147C21.3765 36.4 12.8529 36.1235 6.95888 33.0529C4.34119 30.3411 2.54711 26.8411 1.9295 22.947C7.94125 26.9529 18.7412 29.0647 25.553 26.0588C25.9647 25.8823 26.3589 25.6823 26.753 25.4823C27.6765 28.2823 27.9765 31.2353 27.7059 34.147Z" fill="#FEEB75"/>
<path d="M27.7059 34.1471C27.6001 35.2883 27.4236 36.506 27.1294 37.6236C25.0647 38.4001 22.8354 38.8236 20.5 38.8236C15.1765 38.8236 10.3824 36.6059 6.95889 33.053C12.853 36.1236 21.3765 36.4 27.7059 34.1471Z" fill="#FFF3AB"/>
<path d="M38.553 25.3294C38.6177 24.4471 38.6059 23.5588 38.5824 22.6706C38.4177 17.3529 36.2177 12.1529 32.2236 8.31764C31.5177 7.63531 30.7413 6.99411 29.9177 6.40588C29.9883 6.33529 30.0647 6.2706 30.1354 6.2059C30.6413 5.74705 31.1648 5.31177 31.7118 4.90588C36.3236 8.3353 39.3235 13.8118 39.3235 20C39.3235 21.847 39.0589 23.6412 38.553 25.3294Z" fill="#BADDA4"/>
<path d="M38.553 25.3294V25.3471C37.5824 28.6176 35.7531 31.5118 33.3236 33.7765C33.8941 31.753 34.2295 29.4294 34.2295 27.3412C34.2295 21.5647 32.0354 15.7882 27.6413 11.3706C27.2883 11.0177 26.9295 10.6824 26.5648 10.353C27.5119 8.89414 28.6412 7.57061 29.9177 6.40588C30.7413 6.99412 31.5177 7.63531 32.2237 8.31765C36.2177 12.1529 38.4177 17.3529 38.5824 22.6706C38.6059 23.5588 38.6177 24.4471 38.553 25.3294Z" fill="#A7D08C"/>
<path d="M34.2294 27.3411C34.2294 29.4294 33.8941 31.7529 33.3235 33.7764C31.547 35.4353 29.4471 36.7529 27.1294 37.6235C27.4235 36.5059 27.6 35.2882 27.7059 34.147C27.9765 31.2353 27.6765 28.2823 26.753 25.4823C26.0059 23.2294 24.8824 21.0764 23.3647 19.1235C23.3706 19.0941 23.3765 19.0706 23.3824 19.0412C23.7765 15.8647 24.9 12.9176 26.5647 10.3529C26.9295 10.6823 27.2882 11.0176 27.6412 11.3705C32.0353 15.7882 34.2294 21.5647 34.2294 27.3411Z" fill="#9AC181"/>
<path d="M18.29 30.9589C16.5633 30.9589 14.0954 30.7498 12.5484 30.4723C12.229 30.4149 12.0159 30.1093 12.0734 29.7893C12.1308 29.4699 12.4381 29.2551 12.7564 29.3142C14.2442 29.5813 16.623 29.7824 18.29 29.7824C18.6152 29.7824 18.8783 30.0455 18.8783 30.3706C18.8783 30.6958 18.6152 30.9589 18.29 30.9589ZM10.3334 30.0076C10.2874 30.0076 10.2414 30.0024 10.1949 29.9915C10.08 29.9634 9.96744 29.9318 9.85484 29.8996C9.77787 29.8778 9.70031 29.8559 9.62219 29.8358C9.30739 29.7548 9.11782 29.4337 9.19882 29.1195C9.28039 28.8047 9.60438 28.6157 9.91515 28.6961C10.003 28.7191 10.0898 28.7432 10.1765 28.7679C10.2736 28.7955 10.3713 28.8237 10.4706 28.8472C10.7866 28.9236 10.9808 29.2413 10.9049 29.5572C10.8395 29.8266 10.5988 30.0076 10.3334 30.0076Z" fill="white"/>
</svg>
