<svg width="20" height="20" viewBox="0 0 20 20" fill="none" xmlns="http://www.w3.org/2000/svg">
<path fill-rule="evenodd" clip-rule="evenodd" d="M7.99611 12.456L7.877 12.456C4.495 12.456 0 12.835 0 16.115C0 19.5785 5.25199 19.7823 7.49393 19.7943L8.0854 19.7945C11.4406 19.7783 15.754 19.3491 15.754 16.137C15.754 12.6725 10.502 12.4687 8.26007 12.4567L7.99611 12.456ZM1.5 16.115C1.5 14.683 3.646 13.956 7.877 13.956C12.108 13.956 14.254 14.689 14.254 16.137C14.254 17.568 12.108 18.295 7.877 18.295C3.646 18.295 1.5 17.561 1.5 16.115ZM13.195 5.318C13.195 2.386 10.81 0 7.877 0C4.945 0 2.55997 2.386 2.55997 5.315C2.555 6.731 3.102 8.065 4.1 9.07C5.097 10.074 6.427 10.631 7.846 10.636H7.877C10.81 10.636 13.195 8.25 13.195 5.318ZM4.05997 5.318C4.05997 3.213 5.773 1.5 7.877 1.5C9.982 1.5 11.695 3.213 11.695 5.318C11.695 7.423 9.982 9.136 7.877 9.136V9.877L7.849 9.136C6.833 9.132 5.879 8.733 5.163 8.013C4.448 7.292 4.056 6.337 4.05997 5.318Z" fill="black"/>
<path d="M19.3218 9.04413C19.2991 9.06716 19.213 9.16572 19.1329 9.24672C18.663 9.75643 17.441 10.5873 16.8028 10.839C16.7058 10.8794 16.4608 10.9648 16.3303 10.9694C16.2052 10.9685 16.0862 10.9388 15.9728 10.8796C15.8316 10.7969 15.7188 10.6677 15.6575 10.5156C15.6182 10.4101 15.5582 10.0948 15.5582 10.0892C15.4985 9.74438 15.4684 9.18454 15.473 8.56616C15.4774 7.97697 15.5157 7.44045 15.5694 7.09124C15.5752 7.08568 15.6405 6.69496 15.7097 6.56147C15.8366 6.31761 16.0821 6.16744 16.3435 6.1694L16.3661 6.16956C16.5364 6.17684 16.8933 6.33151 16.8933 6.33711C17.4934 6.5984 18.6751 7.40605 19.1485 7.9404C19.1485 7.9404 19.2819 8.07781 19.3397 8.16344C19.43 8.28652 19.4741 8.43845 19.4729 8.59005C19.4717 8.75924 19.4194 8.91646 19.3218 9.04413Z" fill="black"/>
</svg>
