<svg width="22" height="17" viewBox="0 0 22 17" fill="none" xmlns="http://www.w3.org/2000/svg">
<path fill-rule="evenodd" clip-rule="evenodd" d="M10.8867 10.414L10.9996 10.414L11.2522 10.4149C13.1828 10.4276 17.5947 10.6226 17.5947 13.613C17.5947 16.5837 13.3366 16.7775 11.2823 16.7901L10.5212 16.7901C8.59051 16.7774 4.17772 16.5826 4.17772 13.596C4.17772 10.6215 8.59051 10.4275 10.5212 10.4149L10.7738 10.414C10.813 10.414 10.8507 10.414 10.8867 10.414ZM10.8867 11.914C8.51072 11.914 5.67772 12.206 5.67772 13.596C5.67772 14.9545 8.34163 15.2722 10.6696 15.2902L10.8867 15.291C13.2627 15.291 16.0947 15 16.0947 13.613C16.0947 12.209 13.2627 11.914 10.8867 11.914ZM18.8403 10.0082C21.2633 10.3712 21.7723 11.5092 21.7723 12.4002C21.7723 12.9442 21.5583 13.9372 20.1283 14.4822C20.0403 14.5152 19.9503 14.5312 19.8613 14.5312C19.5593 14.5312 19.2743 14.3472 19.1603 14.0482C19.0123 13.6612 19.2073 13.2272 19.5943 13.0802C20.2723 12.8222 20.2723 12.5372 20.2723 12.4002C20.2723 11.9622 19.7153 11.6562 18.6173 11.4922C18.2083 11.4302 17.9253 11.0492 17.9863 10.6382C18.0473 10.2282 18.4273 9.9552 18.8403 10.0082ZM3.78612 10.6382C3.84712 11.0492 3.56412 11.4302 3.15512 11.4922C2.05712 11.6562 1.50012 11.9622 1.50012 12.4002C1.50012 12.5372 1.50012 12.8212 2.17912 13.0802C2.56612 13.2272 2.76112 13.6612 2.61312 14.0482C2.49912 14.3472 2.21412 14.5312 1.91212 14.5312C1.82312 14.5312 1.73312 14.5152 1.64512 14.4822C0.214122 13.9362 0.00012207 12.9432 0.00012207 12.4002C0.00012207 11.5102 0.509122 10.3712 2.93312 10.0082C3.34612 9.9562 3.72412 10.2282 3.78612 10.6382ZM10.8867 0C13.4067 0 15.4557 2.05 15.4557 4.569C15.4557 7.088 13.4067 9.138 10.8867 9.138H10.8597C9.63972 9.134 8.49672 8.656 7.64072 7.792C6.78272 6.929 6.31372 5.783 6.31868 4.566C6.31868 2.05 8.36772 0 10.8867 0ZM10.8867 1.5C9.19472 1.5 7.8187 2.877 7.8187 4.569C7.81572 5.389 8.12972 6.156 8.70472 6.735C9.27972 7.314 10.0457 7.635 10.8617 7.638L10.8867 8.388V7.638C12.5787 7.638 13.9557 6.262 13.9557 4.569C13.9557 2.877 12.5787 1.5 10.8867 1.5ZM17.0757 0.9795C18.8337 1.2685 20.1107 2.7725 20.1107 4.5555C20.1067 6.3505 18.7657 7.8905 16.9907 8.1395C16.9557 8.1445 16.9207 8.1465 16.8867 8.1465C16.5187 8.1465 16.1977 7.8755 16.1447 7.5005C16.0877 7.0895 16.3727 6.7105 16.7837 6.6535C17.8237 6.5075 18.6087 5.6055 18.6107 4.5535C18.6107 3.5105 17.8627 2.6285 16.8317 2.4595C16.4237 2.3925 16.1467 2.0065 16.2137 1.5975C16.2817 1.1885 16.6647 0.9145 17.0757 0.9795ZM5.55972 1.5975C5.62672 2.0065 5.34972 2.3925 4.94172 2.4595C3.91072 2.6285 3.16272 3.5105 3.16272 4.5555C3.16472 5.6055 3.94972 6.5085 4.98872 6.6535C5.39972 6.7105 5.68472 7.0895 5.62772 7.5005C5.57472 7.8755 5.25372 8.1465 4.88572 8.1465C4.85172 8.1465 4.81672 8.1445 4.78172 8.1395C3.00672 7.8905 1.66672 6.3505 1.66272 4.5575C1.66272 2.7725 2.93972 1.2685 4.69772 0.9795C5.11872 0.9135 5.49172 1.1905 5.55972 1.5975Z" fill="#4558C6"/>
</svg>
