<svg width="20" height="20" viewBox="0 0 20 20" fill="none" xmlns="http://www.w3.org/2000/svg">
<path d="M7.71019 9.29048C7.52188 9.10218 7.26649 8.99639 7.00019 8.99639C6.73388 8.99639 6.47849 9.10218 6.29019 9.29048C6.10188 9.47878 5.99609 9.73418 5.99609 10.0005C5.99609 10.2668 6.10188 10.5222 6.29019 10.7105L9.29019 13.7105C9.38363 13.8032 9.49444 13.8765 9.61628 13.9263C9.73812 13.976 9.86858 14.0012 10.0002 14.0005C10.1371 13.9961 10.2716 13.9637 10.3955 13.9052C10.5193 13.8467 10.6299 13.7634 10.7202 13.6605L17.7202 5.66048C17.8818 5.45981 17.9597 5.20449 17.9377 4.94776C17.9157 4.69104 17.7955 4.45271 17.602 4.28249C17.4086 4.11227 17.1569 4.02328 16.8995 4.03408C16.642 4.04489 16.3987 4.15465 16.2202 4.34048L10.0002 11.5405L7.71019 9.29048Z" fill="#343639"/>
<path d="M19.0008 9C18.7356 9 18.4812 9.10536 18.2937 9.29289C18.1061 9.48043 18.0008 9.73478 18.0008 10C18.0008 12.1217 17.1579 14.1566 15.6576 15.6569C14.1574 17.1571 12.1225 18 10.0008 18C8.42088 17.9993 6.87655 17.5308 5.56255 16.6535C4.24855 15.7763 3.22371 14.5297 2.61727 13.0708C2.01083 11.6119 1.84993 10.0061 2.15488 8.45589C2.45982 6.90569 3.21695 5.48048 4.33079 4.36C5.07149 3.60938 5.95447 3.01404 6.92805 2.60881C7.90163 2.20358 8.94625 1.99661 10.0008 2C10.6402 2.004 11.2773 2.07777 11.9008 2.22C12.0313 2.26035 12.1686 2.27356 12.3044 2.2588C12.4401 2.24404 12.5714 2.20163 12.6902 2.13418C12.8089 2.06673 12.9126 1.97567 12.9948 1.86662C13.077 1.75757 13.136 1.63284 13.1682 1.50011C13.2003 1.36739 13.205 1.22948 13.1818 1.0949C13.1586 0.960317 13.1081 0.831909 13.0334 0.717592C12.9587 0.603274 12.8613 0.505471 12.7474 0.430211C12.6334 0.354952 12.5053 0.303831 12.3708 0.28C11.5939 0.0972427 10.7988 0.00330743 10.0008 0C8.02513 0.0102635 6.09678 0.605521 4.45909 1.71065C2.8214 2.81578 1.54776 4.38126 0.798909 6.20953C0.0500569 8.0378 -0.140452 10.0469 0.251424 11.9834C0.643301 13.9198 1.6 15.6968 3.00079 17.09C4.85748 18.9475 7.37444 19.9939 10.0008 20C12.653 20 15.1965 18.9464 17.0719 17.0711C18.9472 15.1957 20.0008 12.6522 20.0008 10C20.0008 9.73478 19.8954 9.48043 19.7079 9.29289C19.5204 9.10536 19.266 9 19.0008 9Z" fill="#343639"/>
</svg>
