<svg width="60" height="60" viewBox="0 0 60 60" fill="none" xmlns="http://www.w3.org/2000/svg">
<circle cx="30" cy="30" r="30" fill="black" fill-opacity="0.1"/>
<circle cx="30.5" cy="29.5" r="22.5" fill="black" fill-opacity="0.15"/>
<path d="M21.3265 38.7157L21.1842 38.8059L21.2745 38.6637L21.3174 38.596L21.2607 38.5394L19.9317 37.2103L21.2098 35.9413L21.9293 36.6608L22 36.7315L22.0707 36.6608L23.2808 35.4508L23.2885 35.443L23.2944 35.4338L23.3644 35.3238L23.3648 35.3231C26.6205 30.1118 30.4531 25.2842 34.7901 20.9316L34.7978 20.9393L34.8684 20.8731C35.4405 20.3371 36.1985 20.0447 36.9823 20.0574C37.7661 20.0702 38.5143 20.3873 39.0686 20.9416C39.6229 21.4959 39.9399 22.244 39.9527 23.0278C39.9655 23.811 39.6734 24.5686 39.1382 25.1405C34.7674 29.506 29.9161 33.3622 24.6771 36.6353L24.6764 36.6357L24.5664 36.7057L24.5571 36.7116L24.5493 36.7194L23.3393 37.9294L23.2691 37.9996L23.3389 38.0704L24.0491 38.7896L22.78 40.0587L21.4507 38.7294L21.3941 38.6727L21.3265 38.7157ZM27.638 32.5016C31.2539 29.9314 34.6496 27.0648 37.79 23.9315L36.21 22.2101L36.1393 22.1394C36.1393 22.1394 36.1393 22.1394 36.1393 22.1394C32.9783 25.2994 30.0879 28.719 27.4985 32.3622L27.638 32.5016ZM24.6112 25.4114C24.1343 25.73 23.5736 25.9001 23 25.9001C22.2309 25.9001 21.4933 25.5946 20.9494 25.0507C20.4056 24.5068 20.1 23.7692 20.1 23.0001C20.1 22.4265 20.2701 21.8658 20.5888 21.3889C20.9074 20.912 21.3604 20.5403 21.8903 20.3208C22.4202 20.1013 23.0033 20.0439 23.5658 20.1558C24.1283 20.2677 24.6451 20.5439 25.0506 20.9495C25.4562 21.3551 25.7324 21.8718 25.8443 22.4343C25.9562 22.9969 25.8988 23.58 25.6793 24.1099C25.4598 24.6398 25.0881 25.0927 24.6112 25.4114ZM23.6112 22.0855C23.4303 21.9646 23.2176 21.9001 23 21.9001C22.7083 21.9001 22.4285 22.016 22.2222 22.2223C22.0159 22.4286 21.9 22.7084 21.9 23.0001C21.9 23.2177 21.9646 23.4303 22.0854 23.6112C22.2063 23.7921 22.3781 23.9331 22.5791 24.0164C22.7801 24.0996 23.0013 24.1214 23.2146 24.079C23.428 24.0365 23.624 23.9317 23.7779 23.7779C23.9317 23.6241 24.0365 23.4281 24.0789 23.2147C24.1213 23.0013 24.0996 22.7801 24.0163 22.5791C23.9331 22.3781 23.7921 22.2063 23.6112 22.0855Z" fill="white" stroke="#E9ECFC" stroke-width="0.2"/>
</svg>
