<svg width="18" height="21" viewBox="0 0 18 21" fill="none" xmlns="http://www.w3.org/2000/svg">
<path fill-rule="evenodd" clip-rule="evenodd" d="M17.039 4.60406C17.039 1.67906 15.093 6.10352e-05 11.701 6.10352e-05H5.342C1.947 6.10352e-05 0 1.61106 0 4.42106V19.1451C0 19.7541 0.314 20.3031 0.841 20.6101C1.109 20.7681 1.404 20.8471 1.699 20.8471C1.985 20.8471 2.27 20.7731 2.53 20.6271L8.545 17.2531L14.505 20.6201C15.037 20.9201 15.671 20.9141 16.197 20.6061C16.725 20.2991 17.039 19.7501 17.039 19.1401V4.60406ZM5.342 1.50006H11.701C15.3645 1.50006 15.5311 3.62944 15.5386 4.49011L15.539 19.1401C15.539 19.2341 15.486 19.2851 15.441 19.3121C15.396 19.3391 15.325 19.3611 15.242 19.3131L8.915 15.7391C8.686 15.6101 8.407 15.6111 8.179 15.7381L1.797 19.3181C1.715 19.3641 1.644 19.3441 1.599 19.3161C1.554 19.2901 1.5 19.2391 1.5 19.1451V4.42106C1.5 2.48206 2.793 1.50006 5.342 1.50006Z" fill="#4558C6"/>
</svg>
