<svg width="16" height="16" viewBox="0 0 16 16" fill="none" xmlns="http://www.w3.org/2000/svg">
<path d="M8 2.65498V1.10498M2.29 9.16248V12.0025H13.71V9.16248M7.375 2.65498H8.625C8.69131 2.65498 8.7549 2.68132 8.80178 2.7282C8.84866 2.77509 8.875 2.83868 8.875 2.90498V5.44748H7.125V2.90498C7.125 2.83868 7.15134 2.77509 7.19823 2.7282C7.24511 2.68132 7.3087 2.65498 7.375 2.65498ZM3.4075 5.44748H12.595C13.0008 5.44748 13.3899 5.60868 13.6769 5.89561C13.9638 6.18254 14.125 6.5717 14.125 6.97748V8.11498C14.125 8.52099 13.9639 8.91041 13.677 9.19774C13.3902 9.48507 13.001 9.64682 12.595 9.64748C12.1886 9.64748 11.7988 9.48602 11.5114 9.19862C11.224 8.91122 11.0625 8.52143 11.0625 8.11498C11.0625 8.52099 10.9014 8.91041 10.6145 9.19774C10.3277 9.48507 9.93851 9.64682 9.5325 9.64748C9.12606 9.64748 8.73626 9.48602 8.44886 9.19862C8.16146 8.91122 8 8.52143 8 8.11498C8 8.52099 7.83889 8.91041 7.55203 9.19774C7.26517 9.48507 6.87601 9.64682 6.47 9.64748C6.06356 9.64748 5.67376 9.48602 5.38636 9.19862C5.09896 8.91122 4.9375 8.52143 4.9375 8.11498C4.9375 8.52099 4.77639 8.91041 4.48953 9.19774C4.20267 9.48507 3.81351 9.64682 3.4075 9.64748C3.00106 9.64748 2.61126 9.48602 2.32386 9.19862C2.03646 8.91122 1.875 8.52143 1.875 8.11498V6.97748C1.875 6.77635 1.91466 6.57719 1.99171 6.3914C2.06875 6.20561 2.18167 6.03683 2.32401 5.89472C2.46635 5.75262 2.63531 5.63997 2.82123 5.56323C3.00715 5.48648 3.20637 5.44715 3.4075 5.44748ZM12.9775 14.895H3.0225C2.74628 14.8948 2.47547 14.8184 2.2399 14.6742C2.00434 14.5299 1.81318 14.3235 1.6875 14.0775L0.810003 12.365C0.79024 12.3268 0.780642 12.2842 0.782133 12.2413C0.783625 12.1984 0.796156 12.1565 0.818518 12.1199C0.840879 12.0832 0.872318 12.0529 0.909799 12.0319C0.947281 12.0109 0.989541 11.9999 1.0325 12H14.9675C15.0101 12.0001 15.052 12.0111 15.0892 12.032C15.1263 12.0529 15.1575 12.0829 15.1798 12.1192C15.2021 12.1555 15.2147 12.1969 15.2165 12.2395C15.2183 12.2821 15.2092 12.3244 15.19 12.3625L14.315 14.075C14.1895 14.3218 13.9981 14.529 13.762 14.6738C13.5259 14.8185 13.2544 14.8951 12.9775 14.895Z" stroke="#9FA3A9" stroke-linecap="round" stroke-linejoin="round"/>
</svg>
