<svg width="15" height="14" viewBox="0 0 15 14" fill="none" xmlns="http://www.w3.org/2000/svg">
<path fill-rule="evenodd" clip-rule="evenodd" d="M3.43834 0.333612C4.183 0.343612 4.71367 0.901612 5.385 1.60761C5.551 1.78161 5.73034 1.97161 5.931 2.17161C6.90367 3.14495 6.627 3.93895 6.40367 4.57628C6.161 5.27161 5.951 5.87161 7.20834 7.12895C8.46567 8.38628 9.065 8.17628 9.75967 7.93161C10.3977 7.70895 11.1897 7.43028 12.1643 8.40361C12.3623 8.60161 12.549 8.77894 12.7223 8.94361C13.431 9.61828 13.991 10.1509 14.0004 10.8976C14.0077 11.5336 13.621 12.1829 12.6663 13.1376L12.2437 12.8509L12.6017 13.1996C12.3903 13.4163 11.8283 13.9936 10.7277 14.0003H10.7077C9.04634 14.0003 6.88034 12.6776 4.26967 10.0676C1.64834 7.44695 0.323669 5.27428 0.333613 3.60961C0.339669 2.50961 0.916336 1.94628 1.133 1.73495L1.1515 1.71475L1.19634 1.66961C2.153 0.712945 2.81034 0.319612 3.43834 0.333612ZM3.42567 1.33361H3.42034C3.12096 1.33361 2.66631 1.63361 2.03222 2.24954L1.90489 2.37459L1.90634 2.37428C1.90714 2.37428 1.89546 2.38676 1.87691 2.40567L1.83234 2.45028C1.671 2.60695 1.337 2.93295 1.33364 3.61495C1.32834 4.56895 1.95567 6.34028 4.97634 9.36028C7.98234 12.3656 9.751 13.0003 10.7077 13.0003H10.7217C11.4037 12.9963 11.729 12.6623 11.8857 12.5016C11.933 12.4529 11.9717 12.4163 11.999 12.3943C12.6637 11.7256 13.0037 11.2289 13.0004 10.9096C12.9963 10.5843 12.5917 10.2003 12.0323 9.66761C11.8543 9.49895 11.661 9.31428 11.457 9.11028C10.9277 8.58295 10.667 8.67295 10.0903 8.87561C9.29367 9.15495 8.20234 9.53761 6.50167 7.83561C4.80034 6.13495 5.18167 5.04361 5.45967 4.24628C5.661 3.67028 5.753 3.40828 5.22434 2.87895C5.01767 2.67228 4.83167 2.47628 4.66034 2.29628C4.131 1.74028 3.749 1.33828 3.42567 1.33361ZM9.1644 2.70528C10.5517 2.97461 11.6231 4.04528 11.8931 5.43328C11.9457 5.70528 11.7691 5.96728 11.4984 6.01995C11.4657 6.02595 11.4337 6.02928 11.4017 6.02928C11.1671 6.02928 10.9584 5.86395 10.9117 5.62528C10.7197 4.63861 9.95907 3.87795 8.97373 3.68661C8.7024 3.63395 8.52574 3.37195 8.5784 3.10061C8.63107 2.82928 8.89774 2.65195 9.1644 2.70528ZM9.12447 0.337412C11.8431 0.639412 13.9545 2.74808 14.2591 5.46608C14.2898 5.74075 14.0925 5.98808 13.8185 6.01875C13.7998 6.02075 13.7805 6.02208 13.7618 6.02208C13.5105 6.02208 13.2945 5.83341 13.2658 5.57808C13.0131 3.32741 11.2651 1.58075 9.0138 1.33075C8.7398 1.30008 8.5418 1.05341 8.57247 0.778745C8.60247 0.504745 8.84714 0.302745 9.12447 0.337412Z" fill="#9FA3A9"/>
</svg>
