<svg width="18" height="18" viewBox="0 0 18 18" fill="none" xmlns="http://www.w3.org/2000/svg">
<path d="M17 9C17 13.4183 13.4183 17 9 17C4.58172 17 1 13.4183 1 9C1 4.58172 4.58172 1 9 1C13.4183 1 17 4.58172 17 9Z" fill="#23AC00"/>
<path d="M7.98902 11.3674L6.32181 9.70018C6.15015 9.52853 5.87183 9.52853 5.70017 9.70018C5.52851 9.87183 5.52851 10.1502 5.70017 10.3218L7.6782 12.2998C7.84986 12.4715 8.12817 12.4715 8.29983 12.2998L13.135 7.46467C13.3067 7.293 13.3067 7.01469 13.135 6.84303C12.9634 6.67137 12.685 6.67137 12.5134 6.84303L7.98902 11.3674Z" fill="white"/>
<path d="M7.98902 11.3674L7.9183 11.4381L7.98902 11.5088L8.05973 11.4381L7.98902 11.3674ZM6.32181 9.70018L6.39252 9.62947L6.39252 9.62947L6.32181 9.70018ZM5.70017 9.70018L5.62946 9.62947L5.62946 9.62947L5.70017 9.70018ZM5.70017 10.3218L5.77088 10.2511L5.77088 10.2511L5.70017 10.3218ZM7.6782 12.2998L7.60749 12.3705L7.60749 12.3705L7.6782 12.2998ZM8.29983 12.2998L8.37054 12.3705L8.37054 12.3705L8.29983 12.2998ZM13.135 7.46467L13.2057 7.53538L13.2057 7.53537L13.135 7.46467ZM13.135 6.84303L13.2057 6.77232L13.2057 6.77232L13.135 6.84303ZM12.5134 6.84303L12.5841 6.91374L12.5841 6.91374L12.5134 6.84303ZM16.9 9C16.9 13.3631 13.3631 16.9 9 16.9V17.1C13.4735 17.1 17.1 13.4735 17.1 9H16.9ZM9 16.9C4.63695 16.9 1.1 13.3631 1.1 9H0.9C0.9 13.4735 4.52649 17.1 9 17.1V16.9ZM1.1 9C1.1 4.63695 4.63695 1.1 9 1.1V0.9C4.52649 0.9 0.9 4.52649 0.9 9H1.1ZM9 1.1C13.3631 1.1 16.9 4.63695 16.9 9H17.1C17.1 4.52649 13.4735 0.9 9 0.9V1.1ZM8.05973 11.2967L6.39252 9.62947L6.2511 9.77089L7.9183 11.4381L8.05973 11.2967ZM6.39252 9.62947C6.1818 9.41877 5.84018 9.41877 5.62946 9.62947L5.77088 9.7709C5.90349 9.6383 6.11849 9.6383 6.2511 9.7709L6.39252 9.62947ZM5.62946 9.62947C5.41875 9.84017 5.41875 10.1818 5.62946 10.3925L5.77088 10.2511C5.63828 10.1185 5.63828 9.90349 5.77088 9.77089L5.62946 9.62947ZM5.62946 10.3925L7.60749 12.3705L7.74891 12.2291L5.77088 10.2511L5.62946 10.3925ZM7.60749 12.3705C7.8182 12.5812 8.15983 12.5812 8.37054 12.3705L8.22913 12.2291C8.09652 12.3617 7.88152 12.3617 7.74891 12.2291L7.60749 12.3705ZM8.37054 12.3705L13.2057 7.53538L13.0643 7.39395L8.22912 12.2291L8.37054 12.3705ZM13.2057 7.53537C13.4164 7.32466 13.4164 6.98304 13.2057 6.77232L13.0643 6.91374C13.1969 7.04635 13.1969 7.26135 13.0643 7.39396L13.2057 7.53537ZM13.2057 6.77232C12.995 6.56161 12.6534 6.56161 12.4427 6.77232L12.5841 6.91374C12.7167 6.78114 12.9317 6.78114 13.0643 6.91374L13.2057 6.77232ZM12.4427 6.77232L7.9183 11.2967L8.05973 11.4381L12.5841 6.91374L12.4427 6.77232Z" fill="white"/>
</svg>
