<svg width="12" height="12" viewBox="0 0 12 12" fill="none" xmlns="http://www.w3.org/2000/svg">
<path d="M6.93998 6L11.14 1.80667C11.2655 1.68113 11.336 1.51087 11.336 1.33333C11.336 1.1558 11.2655 0.985537 11.14 0.860002C11.0144 0.734466 10.8442 0.66394 10.6666 0.66394C10.4891 0.66394 10.3188 0.734466 10.1933 0.860002L5.99998 5.06L1.80665 0.860002C1.68111 0.734466 1.51085 0.663941 1.33331 0.663941C1.15578 0.663941 0.985515 0.734466 0.85998 0.860002C0.734444 0.985537 0.663919 1.1558 0.663919 1.33333C0.663919 1.51087 0.734444 1.68113 0.85998 1.80667L5.05998 6L0.85998 10.1933C0.797494 10.2553 0.747898 10.329 0.714052 10.4103C0.680206 10.4915 0.662781 10.5787 0.662781 10.6667C0.662781 10.7547 0.680206 10.8418 0.714052 10.9231C0.747898 11.0043 0.797494 11.078 0.85998 11.14C0.921955 11.2025 0.995689 11.2521 1.07693 11.2859C1.15817 11.3198 1.24531 11.3372 1.33331 11.3372C1.42132 11.3372 1.50846 11.3198 1.5897 11.2859C1.67094 11.2521 1.74467 11.2025 1.80665 11.14L5.99998 6.94L10.1933 11.14C10.2553 11.2025 10.329 11.2521 10.4103 11.2859C10.4915 11.3198 10.5786 11.3372 10.6666 11.3372C10.7547 11.3372 10.8418 11.3198 10.923 11.2859C11.0043 11.2521 11.078 11.2025 11.14 11.14C11.2025 11.078 11.2521 11.0043 11.2859 10.9231C11.3198 10.8418 11.3372 10.7547 11.3372 10.6667C11.3372 10.5787 11.3198 10.4915 11.2859 10.4103C11.2521 10.329 11.2025 10.2553 11.14 10.1933L6.93998 6Z" fill="#343639"/>
</svg>
