<svg width="60" height="60" viewBox="0 0 60 60" fill="none" xmlns="http://www.w3.org/2000/svg">
<circle cx="30" cy="30" r="30" fill="black" fill-opacity="0.1"/>
<circle cx="30.5" cy="29.5" r="22.5" fill="black" fill-opacity="0.15"/>
<path d="M22.5 27.75H19.5C19.3011 27.75 19.1103 27.671 18.9697 27.5303C18.829 27.3897 18.75 27.1989 18.75 27C18.75 26.8011 18.829 26.6103 18.9697 26.4697C19.1103 26.329 19.3011 26.25 19.5 26.25H22.5C22.6989 26.25 22.8897 26.329 23.0303 26.4697C23.171 26.6103 23.25 26.8011 23.25 27C23.25 27.1989 23.171 27.3897 23.0303 27.5303C22.8897 27.671 22.6989 27.75 22.5 27.75ZM22.5 30.75H19.5C19.3011 30.75 19.1103 30.671 18.9697 30.5303C18.829 30.3897 18.75 30.1989 18.75 30C18.75 29.8011 18.829 29.6103 18.9697 29.4697C19.1103 29.329 19.3011 29.25 19.5 29.25H22.5C22.6989 29.25 22.8897 29.329 23.0303 29.4697C23.171 29.6103 23.25 29.8011 23.25 30C23.25 30.1989 23.171 30.3897 23.0303 30.5303C22.8897 30.671 22.6989 30.75 22.5 30.75ZM22.5 33.75H19.5C19.3011 33.75 19.1103 33.671 18.9697 33.5303C18.829 33.3897 18.75 33.1989 18.75 33C18.75 32.8011 18.829 32.6103 18.9697 32.4697C19.1103 32.329 19.3011 32.25 19.5 32.25H22.5C22.6989 32.25 22.8897 32.329 23.0303 32.4697C23.171 32.6103 23.25 32.8011 23.25 33C23.25 33.1989 23.171 33.3897 23.0303 33.5303C22.8897 33.671 22.6989 33.75 22.5 33.75ZM39 42H25.5C25.3011 42 25.1103 41.921 24.9697 41.7803C24.829 41.6397 24.75 41.4489 24.75 41.25V18.75C24.75 18.5511 24.829 18.3603 24.9697 18.2197C25.1103 18.079 25.3011 18 25.5 18H39C39.5967 18 40.169 18.2371 40.591 18.659C41.0129 19.081 41.25 19.6533 41.25 20.25V39.75C41.25 40.3467 41.0129 40.919 40.591 41.341C40.169 41.7629 39.5967 42 39 42ZM26.25 40.5H39C39.1989 40.5 39.3897 40.421 39.5303 40.2803C39.671 40.1397 39.75 39.9489 39.75 39.75V20.25C39.75 20.0511 39.671 19.8603 39.5303 19.7197C39.3897 19.579 39.1989 19.5 39 19.5H26.25V40.5Z" fill="white"/>
<path d="M25.5 42H22.5C21.9033 42 21.331 41.7629 20.909 41.341C20.4871 40.919 20.25 40.3467 20.25 39.75V20.25C20.25 19.6533 20.4871 19.081 20.909 18.659C21.331 18.2371 21.9033 18 22.5 18H25.5C25.6989 18 25.8897 18.079 26.0303 18.2197C26.171 18.3603 26.25 18.5511 26.25 18.75V41.25C26.25 41.4489 26.171 41.6397 26.0303 41.7803C25.8897 41.921 25.6989 42 25.5 42ZM22.5 19.5C22.3011 19.5 22.1103 19.579 21.9697 19.7197C21.829 19.8603 21.75 20.0511 21.75 20.25V39.75C21.75 39.9489 21.829 40.1397 21.9697 40.2803C22.1103 40.421 22.3011 40.5 22.5 40.5H24.75V19.5H22.5ZM33 29.25C32.555 29.25 32.12 29.118 31.75 28.8708C31.38 28.6236 31.0916 28.2722 30.9213 27.861C30.751 27.4499 30.7064 26.9975 30.7932 26.561C30.88 26.1246 31.0943 25.7237 31.409 25.409C31.7237 25.0943 32.1246 24.88 32.561 24.7932C32.9975 24.7064 33.4499 24.751 33.861 24.9213C34.2722 25.0916 34.6236 25.38 34.8708 25.75C35.118 26.12 35.25 26.555 35.25 27C35.25 27.5967 35.0129 28.169 34.591 28.591C34.169 29.0129 33.5967 29.25 33 29.25ZM33 26.25C32.8517 26.25 32.7067 26.294 32.5833 26.3764C32.46 26.4588 32.3639 26.5759 32.3071 26.713C32.2503 26.85 32.2355 27.0008 32.2644 27.1463C32.2934 27.2918 32.3648 27.4254 32.4697 27.5303C32.5746 27.6352 32.7082 27.7066 32.8537 27.7356C32.9992 27.7645 33.15 27.7497 33.287 27.6929C33.4241 27.6361 33.5412 27.54 33.6236 27.4167C33.706 27.2933 33.75 27.1483 33.75 27C33.75 26.8011 33.671 26.6103 33.5303 26.4697C33.3897 26.329 33.1989 26.25 33 26.25ZM36.75 35.25H29.25C29.0511 35.25 28.8603 35.171 28.7197 35.0303C28.579 34.8897 28.5 34.6989 28.5 34.5V33.75C28.5 32.7554 28.8951 31.8016 29.5983 31.0983C30.3016 30.3951 31.2554 30 32.25 30H33.75C34.7446 30 35.6984 30.3951 36.4016 31.0983C37.1049 31.8016 37.5 32.7554 37.5 33.75V34.5C37.5 34.6989 37.421 34.8897 37.2803 35.0303C37.1397 35.171 36.9489 35.25 36.75 35.25ZM30 33.75H36C36 33.1533 35.7629 32.581 35.341 32.159C34.919 31.7371 34.3467 31.5 33.75 31.5H32.25C31.6533 31.5 31.081 31.7371 30.659 32.159C30.2371 32.581 30 33.1533 30 33.75Z" fill="white"/>
</svg>
