<svg width="40" height="40" viewBox="0 0 40 40" fill="none" xmlns="http://www.w3.org/2000/svg">
<circle cx="20" cy="20" r="20" fill="#D3D9FA" fill-opacity="0.5"/>
<circle cx="20" cy="20" r="15" fill="#99A7F2" fill-opacity="0.25"/>
<g clip-path="url(#clip0_1940_69836)">
<g filter="url(#filter0_d_1940_69836)">
<path d="M19.9577 22.116C22.817 22.116 25.2585 22.5693 25.2585 24.3833C25.2585 26.1965 22.8327 26.6663 19.9577 26.6663C17.0984 26.6663 14.6569 26.213 14.6569 24.3998C14.6569 22.5858 17.0827 22.116 19.9577 22.116ZM24.5294 21.0237C25.6225 21.0035 26.7977 21.1536 27.232 21.2601C28.152 21.441 28.7572 21.8103 29.0079 22.3469C29.2198 22.7874 29.2198 23.2985 29.0079 23.7383C28.6244 24.5706 27.388 24.8378 26.9074 24.9069C26.8082 24.9219 26.7283 24.8356 26.7388 24.7357C26.9843 22.4294 25.0316 21.3359 24.5264 21.0845C24.5048 21.0733 24.5003 21.056 24.5025 21.0455C24.504 21.038 24.513 21.026 24.5294 21.0237ZM15.2656 21.0222L15.4715 21.024C15.4879 21.0263 15.4961 21.0383 15.4976 21.0451C15.4999 21.0563 15.4954 21.0728 15.4745 21.0848C14.9686 21.3362 13.0159 22.4297 13.2613 24.7353C13.2718 24.8359 13.1927 24.9214 13.0935 24.9072C12.6129 24.8381 11.3765 24.5709 10.993 23.7386C10.7803 23.2981 10.7803 22.7877 10.993 22.3472C11.2437 21.8106 11.8481 21.4413 12.7681 21.2597C13.2031 21.1539 14.3776 21.0038 15.4715 21.024L15.2656 21.0222ZM19.9577 13.333C21.9044 13.333 23.4654 14.9016 23.4654 16.8604C23.4654 18.8185 21.9044 20.3885 19.9577 20.3885C18.0109 20.3885 16.4499 18.8185 16.4499 16.8604C16.4499 14.9016 18.0109 13.333 19.9577 13.333ZM24.7197 13.9213C26.6 13.9213 28.0767 15.7007 27.5738 17.6828C27.2343 19.0172 26.0053 19.9035 24.6361 19.8675C24.4988 19.8638 24.3637 19.851 24.2332 19.8285C24.1384 19.812 24.0906 19.7047 24.1444 19.6251C24.6667 18.8521 24.9644 17.9222 24.9644 16.924C24.9644 15.8823 24.6391 14.9112 24.0742 14.1149C24.0563 14.0901 24.0429 14.0518 24.0608 14.0233C24.0757 14.0001 24.1033 13.988 24.1294 13.982C24.3197 13.943 24.5152 13.9213 24.7197 13.9213ZM15.2801 13.9212C15.4846 13.9212 15.6801 13.9429 15.8711 13.982C15.8964 13.988 15.9248 14.0007 15.9397 14.0232C15.9569 14.0518 15.9442 14.09 15.9263 14.1148C15.3614 14.9111 15.0361 15.8823 15.0361 16.924C15.0361 17.9221 15.3338 18.852 15.8561 19.625C15.9099 19.7046 15.8621 19.8119 15.7674 19.8284C15.636 19.8517 15.5017 19.8637 15.3644 19.8674C13.9952 19.9035 12.7663 19.0171 12.4268 17.6827C11.9231 15.7006 13.3998 13.9212 15.2801 13.9212Z" fill="#4558C6"/>
</g>
</g>
<defs>
<filter id="filter0_d_1940_69836" x="0.833496" y="7.33301" width="38.3335" height="33.333" filterUnits="userSpaceOnUse" color-interpolation-filters="sRGB">
<feFlood flood-opacity="0" result="BackgroundImageFix"/>
<feColorMatrix in="SourceAlpha" type="matrix" values="0 0 0 0 0 0 0 0 0 0 0 0 0 0 0 0 0 0 127 0" result="hardAlpha"/>
<feOffset dy="4"/>
<feGaussianBlur stdDeviation="5"/>
<feComposite in2="hardAlpha" operator="out"/>
<feColorMatrix type="matrix" values="0 0 0 0 0.263063 0 0 0 0 0.329896 0 0 0 0 0.716821 0 0 0 0.5 0"/>
<feBlend mode="normal" in2="BackgroundImageFix" result="effect1_dropShadow_1940_69836"/>
<feBlend mode="normal" in="SourceGraphic" in2="effect1_dropShadow_1940_69836" result="shape"/>
</filter>
<clipPath id="clip0_1940_69836">
<rect width="28" height="22" fill="white" transform="translate(6 13)"/>
</clipPath>
</defs>
</svg>
