<svg width="19" height="20" viewBox="0 0 19 20" fill="none" xmlns="http://www.w3.org/2000/svg">
<path fill-rule="evenodd" clip-rule="evenodd" d="M16.3846 6.71994C16.7976 6.75394 17.1056 7.11494 17.0726 7.52794C17.0666 7.59594 16.5246 14.3069 16.2126 17.1219C16.0186 18.8689 14.8646 19.9319 13.1226 19.9639C11.7896 19.9869 10.5036 19.9999 9.2466 19.9999C7.8916 19.9999 6.5706 19.9849 5.2636 19.9579C3.5916 19.9249 2.4346 18.8409 2.2456 17.1289C1.9306 14.2889 1.3916 7.59494 1.3866 7.52794C1.3526 7.11494 1.6606 6.75294 2.0736 6.71994C2.4806 6.70894 2.8486 6.99494 2.8816 7.40694C2.88479 7.45035 3.10514 10.184 3.34526 12.8887L3.39349 13.4284C3.51443 14.7728 3.63703 16.0646 3.7366 16.9639C3.8436 17.9369 4.3686 18.4389 5.2946 18.4579C7.7946 18.5109 10.3456 18.5139 13.0956 18.4639C14.0796 18.4449 14.6116 17.9529 14.7216 16.9569C15.0316 14.1629 15.5716 7.47494 15.5776 7.40694C15.6106 6.99494 15.9756 6.70694 16.3846 6.71994ZM11.3454 0.000244141C12.2634 0.000244141 13.0704 0.619244 13.3074 1.50624L13.5614 2.76724C13.6435 3.18062 14.0062 3.4825 14.4263 3.48913L17.708 3.48924C18.122 3.48924 18.458 3.82524 18.458 4.23924C18.458 4.65324 18.122 4.98924 17.708 4.98924L14.4556 4.98909C14.4505 4.98919 14.4455 4.98924 14.4404 4.98924L14.416 4.98824L4.04162 4.98912C4.03355 4.9892 4.02548 4.98924 4.0174 4.98924L4.002 4.98824L0.75 4.98924C0.336 4.98924 0 4.65324 0 4.23924C0 3.82524 0.336 3.48924 0.75 3.48924L4.031 3.48824L4.13202 3.48185C4.50831 3.43303 4.82104 3.14724 4.8974 2.76724L5.1404 1.55124C5.3874 0.619244 6.1944 0.000244141 7.1124 0.000244141H11.3454ZM11.3454 1.50024H7.1124C6.8724 1.50024 6.6614 1.66124 6.6004 1.89224L6.3674 3.06224C6.33779 3.21044 6.29467 3.35326 6.23948 3.48951H12.2186C12.1634 3.35326 12.1201 3.21044 12.0904 3.06224L11.8474 1.84624C11.7964 1.66124 11.5854 1.50024 11.3454 1.50024Z" fill="white"/>
</svg>
