<svg width="15" height="14" viewBox="0 0 15 14" fill="none" xmlns="http://www.w3.org/2000/svg">
<path fill-rule="evenodd" clip-rule="evenodd" d="M11.1059 0.333252C13.3259 0.333252 14.9999 2.14459 14.9999 4.54659V9.12525C14.9999 10.3546 14.5653 11.4653 13.7753 12.2533C13.0666 12.9593 12.1473 13.3333 11.1166 13.3333H4.54793C3.51926 13.3333 2.6006 12.9599 1.89126 12.2533C1.10126 11.4653 0.666595 10.3546 0.666595 9.12525V4.54659C0.666595 2.14459 2.3406 0.333252 4.5606 0.333252H11.1059ZM11.1059 1.33325H4.5606C2.88393 1.33325 1.6666 2.68459 1.6666 4.54659V9.12525C1.6666 10.0873 1.99726 10.9466 2.59726 11.5446C3.1146 12.0613 3.78993 12.3333 4.54993 12.3333H11.1059C11.1073 12.3319 11.1126 12.3333 11.1166 12.3333C11.8773 12.3333 12.5519 12.0613 13.0693 11.5446C13.6699 10.9466 13.9999 10.0873 13.9999 9.12525V4.54659C13.9999 2.68459 12.7826 1.33325 11.1059 1.33325ZM12.1566 4.41912C12.3306 4.63312 12.2979 4.94779 12.0839 5.12245L9.12126 7.53045C8.7466 7.82779 8.2986 7.97645 7.85126 7.97645C7.40526 7.97645 6.9606 7.82912 6.5886 7.53445L3.5986 5.12379C3.38326 4.95045 3.34993 4.63512 3.5226 4.42045C3.6966 4.20645 4.01126 4.17245 4.22593 4.34512L7.21326 6.75312C7.58859 7.05045 8.11726 7.05045 8.49526 6.75045L11.4526 4.34645C11.6673 4.17112 11.9819 4.20445 12.1566 4.41912Z" fill="#9FA3A9"/>
</svg>
