<svg width="14" height="12" viewBox="0 0 14 12" fill="none" xmlns="http://www.w3.org/2000/svg">
<path fill-rule="evenodd" clip-rule="evenodd" d="M12.6115 0.1465C12.8069 0.341833 12.8069 0.6585 12.6115 0.853833L2.09552 11.3692C1.99819 11.4672 1.87019 11.5158 1.74219 11.5158C1.61419 11.5158 1.48619 11.4672 1.38885 11.3692C1.19352 11.1738 1.19352 10.8578 1.38885 10.6625L2.70348 9.34867C1.76094 8.48656 0.961396 7.32442 0.374252 5.95597C0.319585 5.8293 0.319585 5.68663 0.374252 5.56063C1.05492 3.98463 2.01359 2.67997 3.14692 1.78863C5.34214 0.0513326 8.22812 -0.0408837 10.5124 1.53885L11.9049 0.1465C12.1002 -0.0488333 12.4162 -0.0488333 12.6115 0.1465ZM12.3647 3.3605C12.8474 4.00117 13.2714 4.74183 13.6254 5.55917C13.6807 5.68583 13.6807 5.82983 13.6254 5.95583C12.2281 9.19383 9.75139 11.1265 7.00005 11.1265C6.37539 11.1265 5.75405 11.0252 5.15405 10.8258C4.89205 10.7385 4.75005 10.4552 4.83739 10.1932C4.92472 9.9305 5.20672 9.79117 5.47005 9.8765C5.96805 10.0425 6.48272 10.1265 7.00005 10.1265C9.28539 10.1265 11.3741 8.4985 12.6201 5.75783C12.3161 5.09183 11.9621 4.4885 11.5661 3.96183C11.4001 3.74117 11.4441 3.42717 11.6647 3.26117C11.8847 3.09517 12.1987 3.1405 12.3647 3.3605ZM3.76625 2.57397C2.80892 3.3273 1.98692 4.42463 1.38025 5.7593C1.90921 6.9276 2.60413 7.91288 3.41129 8.64047L4.83649 7.21541C4.54654 6.78879 4.39052 6.2858 4.39052 5.75903C4.39052 4.31903 5.56119 3.1477 6.99985 3.1477C7.52184 3.1477 8.03245 3.30664 8.45757 3.5939L9.79192 2.25963C7.89003 1.03015 5.57524 1.14231 3.76625 2.57397ZM9.15825 5.64103C9.43025 5.6897 9.61092 5.9497 9.56225 6.2217C9.37092 7.2837 8.52959 8.12637 7.46825 8.3197C7.43825 8.32503 7.40759 8.3277 7.37825 8.3277C7.14159 8.3277 6.93092 8.15837 6.88692 7.91703C6.83759 7.6457 7.01759 7.38503 7.28959 7.3357C7.94292 7.21703 8.46025 6.69837 8.57759 6.04437C8.62692 5.77303 8.88692 5.59437 9.15825 5.64103ZM6.99985 4.1477C6.11252 4.1477 5.39052 4.87037 5.39052 5.75903C5.39052 6.01595 5.451 6.26396 5.56502 6.48668L7.72878 4.32266C7.50601 4.20914 7.25545 4.1477 6.99985 4.1477Z" fill="#9FA3A9"/>
</svg>
