<svg width="12" height="14" viewBox="0 0 12 14" fill="none" xmlns="http://www.w3.org/2000/svg">
<path fill-rule="evenodd" clip-rule="evenodd" d="M1.0622 5.95084V5.95909C1.10984 7.29176 1.57084 8.5767 2.38143 9.63577L2.38482 9.64021C3.33429 10.9081 4.49944 11.9991 5.82701 12.8632C5.84722 12.8764 5.86651 12.8909 5.88474 12.9067C5.93273 12.9482 6.00392 12.9482 6.05192 12.9067C6.07065 12.8905 6.0905 12.8756 6.11131 12.8621C7.00187 12.2872 7.82302 11.6113 8.55842 10.8479C9.84938 9.48508 10.8394 7.8044 10.8745 6.04328V5.98687L10.8745 5.98507C10.8837 3.27548 8.69458 1.07146 5.98499 1.06223C3.2757 1.05305 1.07188 3.24167 1.0622 5.95084ZM3.08118e-06 5.94811C0.011202 2.6519 2.69239 -0.0111288 5.9886 3.49718e-05C9.28454 0.0112681 11.9474 2.69201 11.9367 5.98785V6.04844L11.9366 6.0585C11.896 8.19892 10.7076 10.1242 9.328 11.58L9.32506 11.5831C8.53991 12.3985 7.66398 13.1211 6.71441 13.7371C6.2789 14.0879 5.65662 14.0876 5.22136 13.7364C3.80099 12.8075 2.55383 11.6375 1.53623 10.2791C0.590627 9.0427 0.0537598 7.54233 0.000313141 5.98663C0.00010438 5.98055 0 5.97447 0 5.96839L3.08118e-06 5.94811Z" fill="#9FA3A9"/>
<path fill-rule="evenodd" clip-rule="evenodd" d="M5.96805 4.84289C5.29889 4.84289 4.75644 5.38535 4.75644 6.05451C4.75644 6.72366 5.29889 7.26612 5.96805 7.26612C6.63721 7.26612 7.17967 6.72366 7.17967 6.05451C7.17967 5.38535 6.63721 4.84289 5.96805 4.84289ZM3.69424 6.05451C3.69424 4.79871 4.71226 3.78069 5.96805 3.78069C7.22384 3.78069 8.24187 4.79871 8.24187 6.05451C8.24187 7.3103 7.22384 8.32832 5.96805 8.32832C4.71226 8.32832 3.69424 7.3103 3.69424 6.05451Z" fill="#9FA3A9"/>
</svg>
