<svg width="16" height="20" viewBox="0 0 16 20" fill="none" xmlns="http://www.w3.org/2000/svg">
<path fill-rule="evenodd" clip-rule="evenodd" d="M15.8399 16.1931C15.8399 19.4891 11.3199 19.8701 7.92088 19.8701L7.67764 19.8699C5.51208 19.8646 -0.00012207 19.7279 -0.00012207 16.1731C-0.00012207 12.9444 4.33823 12.5129 7.71136 12.4966L8.16411 12.4963C10.3295 12.5016 15.8399 12.6383 15.8399 16.1931ZM7.92088 13.9961C3.65988 13.9961 1.49988 14.7281 1.49988 16.1731C1.49988 17.6311 3.65988 18.3701 7.92088 18.3701C12.1809 18.3701 14.3399 17.6381 14.3399 16.1931C14.3399 14.7351 12.1809 13.9961 7.92088 13.9961ZM7.92088 -0.000305176C10.8489 -0.000305176 13.2299 2.38169 13.2299 5.30969C13.2299 8.23769 10.8489 10.6187 7.92088 10.6187H7.88888C4.96688 10.6097 2.59988 8.2267 2.60985 5.30669C2.60985 2.3817 4.99188 -0.000305176 7.92088 -0.000305176ZM7.92088 1.42769C5.77988 1.42769 4.03786 3.16869 4.03786 5.30969C4.03088 7.4437 5.75988 9.18369 7.89188 9.1917L7.92088 9.90569V9.1917C10.0609 9.1917 11.8019 7.44969 11.8019 5.30969C11.8019 3.16869 10.0609 1.42769 7.92088 1.42769Z" fill="#4558C6"/>
</svg>
