<svg width="40" height="40" viewBox="0 0 40 40" fill="none" xmlns="http://www.w3.org/2000/svg">
<circle cx="20" cy="20" r="20" fill="#0097AC" fill-opacity="0.15"/>
<circle cx="20" cy="20" r="15" fill="#0097AC" fill-opacity="0.2"/>
<g clip-path="url(#clip0_1940_69863)">
<g filter="url(#filter0_d_1940_69863)">
<path d="M22.7769 13C25.0437 13 26.3233 14.2857 26.33 16.5524V22.7776C26.33 25.0437 25.0437 26.33 22.7769 26.33H16.5524C14.2857 26.33 13 25.0437 13 22.7776V16.5524C13 14.2857 14.2857 13 16.5524 13H22.7769ZM19.9982 15.7526C19.811 15.6393 19.5844 15.6393 19.4051 15.7526C19.2244 15.8653 19.1251 16.0726 19.1445 16.2792V23.0708C19.1785 23.3574 19.4177 23.5707 19.6977 23.5707C19.9849 23.5707 20.2242 23.3574 20.2509 23.0708V16.2792C20.2775 16.0726 20.1782 15.8653 19.9982 15.7526ZM16.8857 17.9388C16.7057 17.8255 16.4785 17.8255 16.2992 17.9388C16.1186 18.0521 16.0192 18.258 16.0392 18.4653V23.0708C16.0652 23.3574 16.3052 23.5707 16.5918 23.5707C16.879 23.5707 17.1183 23.3574 17.145 23.0708V18.4653C17.1656 18.258 17.065 18.0521 16.8857 17.9388ZM23.0568 20.3582C22.8775 20.2449 22.6509 20.2449 22.4643 20.3582C22.2837 20.4715 22.1844 20.6707 22.211 20.8847V23.0708C22.2377 23.3574 22.477 23.5707 22.7642 23.5707C23.0442 23.5707 23.2834 23.3574 23.3174 23.0708V20.8847C23.3367 20.6707 23.2374 20.4715 23.0568 20.3582Z" fill="#0097AC"/>
</g>
</g>
<defs>
<filter id="filter0_d_1940_69863" x="3" y="7" width="33.3301" height="33.3301" filterUnits="userSpaceOnUse" color-interpolation-filters="sRGB">
<feFlood flood-opacity="0" result="BackgroundImageFix"/>
<feColorMatrix in="SourceAlpha" type="matrix" values="0 0 0 0 0 0 0 0 0 0 0 0 0 0 0 0 0 0 127 0" result="hardAlpha"/>
<feOffset dy="4"/>
<feGaussianBlur stdDeviation="5"/>
<feComposite in2="hardAlpha" operator="out"/>
<feColorMatrix type="matrix" values="0 0 0 0 0 0 0 0 0 0.592157 0 0 0 0 0.67451 0 0 0 0.5 0"/>
<feBlend mode="normal" in2="BackgroundImageFix" result="effect1_dropShadow_1940_69863"/>
<feBlend mode="normal" in="SourceGraphic" in2="effect1_dropShadow_1940_69863" result="shape"/>
</filter>
<clipPath id="clip0_1940_69863">
<rect width="28" height="22" fill="white" transform="translate(6 13)"/>
</clipPath>
</defs>
</svg>
