<svg width="15" height="15" viewBox="0 0 15 15" fill="none" xmlns="http://www.w3.org/2000/svg">
<path fill-rule="evenodd" clip-rule="evenodd" d="M7.30968 0.333374C10.8897 0.333374 13.8017 3.24537 13.8017 6.82537C13.8017 8.51441 13.1535 10.0549 12.0928 11.211L14.18 13.2938C14.3753 13.4892 14.376 13.8052 14.1806 14.0005C14.0833 14.0992 13.9546 14.1478 13.8266 14.1478C13.6993 14.1478 13.5713 14.0992 13.4733 14.0018L11.3609 11.8954C10.2497 12.7853 8.8408 13.318 7.30968 13.318C3.72968 13.318 0.817017 10.4054 0.817017 6.82537C0.817017 3.24537 3.72968 0.333374 7.30968 0.333374ZM7.30968 1.33337C4.28102 1.33337 1.81702 3.79671 1.81702 6.82537C1.81702 9.85404 4.28102 12.318 7.30968 12.318C10.3377 12.318 12.8017 9.85404 12.8017 6.82537C12.8017 3.79671 10.3377 1.33337 7.30968 1.33337Z" fill="#343639"/>
</svg>
