<svg width="27" height="24" viewBox="0 0 27 24" fill="none" xmlns="http://www.w3.org/2000/svg">
<path d="M17.0053 9.33333C18.294 9.33333 19.3387 10.378 19.3387 11.6667V17.9987C19.3387 21.3131 16.6517 24 13.3373 24C10.0228 24 7.33591 21.3131 7.33591 17.9987V11.6667C7.33591 10.378 8.38057 9.33333 9.66924 9.33333H17.0053ZM6.84171 9.33208C6.37577 9.89573 6.07515 10.6011 6.01409 11.3739L6.00257 11.6667V17.9987C6.00257 19.1275 6.25759 20.1968 6.71316 21.152C6.27436 21.2707 5.81199 21.3333 5.33499 21.3333C2.38856 21.3333 0 18.9448 0 15.9984V11.6667C0 10.4424 0.942813 9.4384 2.14196 9.34107L2.33333 9.33333L6.84171 9.33208ZM19.8329 9.33208L24.3333 9.33333C25.622 9.33333 26.6667 10.378 26.6667 11.6667V16C26.6667 18.9455 24.2788 21.3333 21.3333 21.3333C20.8581 21.3333 20.3973 21.2712 19.9588 21.1545C20.3596 20.3173 20.6051 19.3936 20.6601 18.4192L20.672 17.9987V11.6667C20.672 10.7796 20.3571 9.96627 19.8329 9.33208ZM13.3333 0C15.5425 0 17.3333 1.79087 17.3333 4C17.3333 6.20913 15.5425 8 13.3333 8C11.1241 8 9.33333 6.20913 9.33333 4C9.33333 1.79087 11.1241 0 13.3333 0ZM22 1.33333C23.8409 1.33333 25.3333 2.82572 25.3333 4.66667C25.3333 6.50761 23.8409 8 22 8C20.1591 8 18.6667 6.50761 18.6667 4.66667C18.6667 2.82572 20.1591 1.33333 22 1.33333ZM4.66667 1.33333C6.50761 1.33333 8 2.82572 8 4.66667C8 6.50761 6.50761 8 4.66667 8C2.82572 8 1.33333 6.50761 1.33333 4.66667C1.33333 2.82572 2.82572 1.33333 4.66667 1.33333Z" fill="#4558C6"/>
</svg>
