<svg width="24" height="24" viewBox="0 0 24 24" fill="none" xmlns="http://www.w3.org/2000/svg">
<path d="M11.9982 0C18.6246 0 23.9964 5.37178 23.9964 11.9982C23.9964 18.6246 18.6246 23.9964 11.9982 23.9964C10.03 23.9964 8.12898 23.5212 6.42598 22.6266L1.27827 23.9668C0.733211 24.1089 0.176254 23.782 0.0342908 23.2369C-0.00961063 23.0685 -0.00962268 22.8915 0.0342548 22.7229L1.37368 17.5776C0.476569 15.8729 0 13.9693 0 11.9982C0 5.37178 5.37178 0 11.9982 0ZM13.5 13.198H8.09879L7.97669 13.2062C7.53746 13.2658 7.19893 13.6423 7.19893 14.0979C7.19893 14.5535 7.53746 14.93 7.97669 14.9896L8.09879 14.9978H13.5L13.6222 14.9896C14.0614 14.93 14.3999 14.5535 14.3999 14.0979C14.3999 13.6423 14.0614 13.2658 13.6222 13.2062L13.5 13.198ZM15.8976 8.99866H8.09879L7.97669 9.00688C7.53746 9.06646 7.19893 9.44295 7.19893 9.89853C7.19893 10.3541 7.53746 10.7306 7.97669 10.7902L8.09879 10.7984H15.8976L16.0198 10.7902C16.4589 10.7306 16.7975 10.3541 16.7975 9.89853C16.7975 9.44295 16.4589 9.06646 16.0198 9.00688L15.8976 8.99866Z" fill="#4558C6"/>
</svg>
