<svg width="13" height="12" viewBox="0 0 13 12" fill="none" xmlns="http://www.w3.org/2000/svg">
<path fill-rule="evenodd" clip-rule="evenodd" d="M10.0763 7.13863C11.2203 7.13863 12.151 8.06463 12.151 9.20263C12.151 10.3406 11.2203 11.2666 10.0763 11.2666C8.93164 11.2666 8.00031 10.3406 8.00031 9.20263C8.00031 8.06463 8.93164 7.13863 10.0763 7.13863ZM10.0763 8.13863C9.48298 8.13863 9.00031 8.61596 9.00031 9.20263C9.00031 9.78996 9.48298 10.2666 10.0763 10.2666C10.669 10.2666 11.151 9.78996 11.151 9.20263C11.151 8.61596 10.669 8.13863 10.0763 8.13863ZM5.20457 8.72849C5.48057 8.72849 5.70457 8.95249 5.70457 9.22849C5.70457 9.50449 5.48057 9.72849 5.20457 9.72849H1.00391C0.727908 9.72849 0.503908 9.50449 0.503908 9.22849C0.503908 8.95249 0.727908 8.72849 1.00391 8.72849H5.20457ZM2.55971 0.666626C3.70437 0.666626 4.63504 1.59329 4.63504 2.73129C4.63504 3.86929 3.70437 4.79463 2.55971 4.79463C1.41571 4.79463 0.484375 3.86929 0.484375 2.73129C0.484375 1.59329 1.41571 0.666626 2.55971 0.666626ZM2.55971 1.66663C1.96704 1.66663 1.48437 2.14396 1.48437 2.73129C1.48437 3.31796 1.96704 3.79463 2.55971 3.79463C3.15304 3.79463 3.63504 3.31796 3.63504 2.73129C3.63504 2.14396 3.15304 1.66663 2.55971 1.66663ZM11.2784 2.26689C11.5544 2.26689 11.7784 2.49089 11.7784 2.76689C11.7784 3.04289 11.5544 3.26689 11.2784 3.26689H7.07844C6.80244 3.26689 6.57844 3.04289 6.57844 2.76689C6.57844 2.49089 6.80244 2.26689 7.07844 2.26689H11.2784Z" fill="#343639"/>
</svg>
