<svg width="22" height="21" viewBox="0 0 22 21" fill="none" xmlns="http://www.w3.org/2000/svg">
<path d="M9.24979 8.99953C9.24979 8.30956 8.6905 7.75024 8.00053 7.75024C7.31057 7.75024 6.75124 8.30956 6.75124 8.99953C6.75124 9.6895 7.31057 10.2488 8.00053 10.2488C8.6905 10.2488 9.24979 9.6895 9.24979 8.99953ZM15.2498 8.99953C15.2498 8.30956 14.6905 7.75024 14.0005 7.75024C13.3106 7.75024 12.7512 8.30956 12.7512 8.99953C12.7512 9.6895 13.3106 10.2488 14.0005 10.2488C14.6905 10.2488 15.2498 9.6895 15.2498 8.99953ZM9.13599 14.106C8.78085 13.8929 8.32016 14.0081 8.10705 14.3633C7.89394 14.7185 8.00911 15.1792 8.3643 15.3923C9.13109 15.8524 10.0846 16.0617 11.0002 16.0617C11.9157 16.0617 12.8692 15.8525 13.636 15.3924C13.9912 15.1794 14.1064 14.7187 13.8933 14.3635C13.6802 14.0083 13.2196 13.8931 12.8644 14.1061C12.3812 14.396 11.7096 14.5617 11.0002 14.5617C10.2908 14.5617 9.61919 14.3959 9.13599 14.106ZM21.0016 10.9996C21.0016 5.47589 16.5238 0.998047 11.0001 0.998047C5.47638 0.998047 0.998535 5.47589 0.998535 10.9996C0.998535 16.5233 5.47638 21.0011 11.0001 21.0011C16.5238 21.0011 21.0016 16.5233 21.0016 10.9996ZM2.49854 10.9996C2.49854 6.30432 6.30481 2.49805 11.0001 2.49805C15.6954 2.49805 19.5016 6.30432 19.5016 10.9996C19.5016 15.6949 15.6954 19.5011 11.0001 19.5011C6.30481 19.5011 2.49854 15.6949 2.49854 10.9996Z" fill="#9FA3A9"/>
</svg>
