<svg width="40" height="40" viewBox="0 0 40 40" fill="none" xmlns="http://www.w3.org/2000/svg">
<circle cx="20" cy="20" r="20" fill="white" fill-opacity="0.1"/>
<circle cx="20.3333" cy="19.6667" r="15" fill="white" fill-opacity="0.15"/>
<g clip-path="url(#clip0_2934_25314)">
<path d="M25.175 21.075C24.925 21 24.7 20.925 24.55 20.85C25.4 20.175 26 19.05 26 17.525C26 15.85 24.625 14.5 22.95 14.5C22.7 13.05 21.45 12 20 12C18.55 12 17.325 13.075 17.05 14.5C15.375 14.5 14 15.85 14 17.475C14 18.75 14.525 20.075 15.45 20.825L15.425 20.85C15.275 20.925 15.05 21 14.825 21.075C13.775 21.425 12 22.025 12 24.075V25.425C12 25.7 12.225 25.925 12.5 25.925H14.05C14.025 26.1 14 26.3 14 26.5V27.5C14 27.775 14.225 28 14.5 28H25.5C25.775 28 26 27.775 26 27.5V26.5C26 26.3 25.975 26.1 25.95 25.925H27.5C27.775 25.925 28 25.7 28 25.425V24.075C28 22.025 26.225 21.425 25.175 21.075ZM25 17.525C25 18.775 24.35 20.125 23.25 20.425C23.4 19.9 23.5 19.35 23.5 18.75C23.5 17.5 22.85 16.4 21.85 15.8C22.175 15.625 22.55 15.5 22.925 15.5C24.075 15.5 25 16.4 25 17.525ZM17.5 18.75C17.5 17.375 18.625 16.25 20 16.25C21.375 16.25 22.5 17.375 22.5 18.75C22.5 20.6 21.25 22.5 20 22.5C18.75 22.5 17.5 20.6 17.5 18.75ZM20 13C20.95 13 21.775 13.7 21.95 14.65C21.525 14.8 21.125 15.025 20.775 15.325C20.525 15.275 20.25 15.225 20 15.225C19.725 15.225 19.475 15.25 19.225 15.325C18.9 15.025 18.5 14.775 18.05 14.65C18.225 13.7 19.05 13 20 13ZM15 17.475C15 16.375 15.925 15.5 17.075 15.5C17.45 15.5 17.825 15.6 18.15 15.8C17.15 16.4 16.5 17.5 16.5 18.75C16.5 19.35 16.6 19.9 16.75 20.425C15.65 20.1 15 18.75 15 17.475ZM13 24.925V24.075C13 22.85 13.925 22.425 15.15 22.025C15.425 21.925 15.675 21.85 15.875 21.75C16.075 21.65 16.25 21.525 16.4 21.35C16.65 21.425 16.925 21.475 17.225 21.5C17.5 21.975 17.825 22.4 18.2 22.725C18.15 22.75 18.1 22.775 18.05 22.8C17.875 22.875 17.6 22.975 17.3 23.075C16.4 23.375 15.075 23.8 14.425 24.925H13ZM27 24.925H25.6C24.95 23.825 23.7 23.4 22.925 23.15C22.65 23.075 22.375 23.2 22.3 23.475C22.225 23.725 22.35 24.025 22.625 24.1C23.9 24.525 25.025 25.025 25.025 26.5V27H15V26.5C15 25 16.125 24.5 17.6 24.025C17.95 23.925 18.225 23.825 18.45 23.7C18.675 23.6 18.875 23.45 19.025 23.275C19.35 23.425 19.675 23.5 20 23.5C21.025 23.5 22.1 22.725 22.8 21.5C23.075 21.5 23.35 21.45 23.625 21.35C23.775 21.525 23.95 21.65 24.15 21.75C24.35 21.85 24.6 21.925 24.875 22.025C26.075 22.425 27.025 22.85 27.025 24.075V24.925H27Z" fill="white"/>
</g>
<defs>
<clipPath id="clip0_2934_25314">
<rect width="16" height="16" fill="white" transform="translate(12 12)"/>
</clipPath>
</defs>
</svg>
