<svg width="23" height="24" viewBox="0 0 23 24" fill="none" xmlns="http://www.w3.org/2000/svg">
<path fill-rule="evenodd" clip-rule="evenodd" d="M13.338 15.8373C14.64 15.8373 15.6999 16.8928 15.6999 18.1903V21.5273C15.6999 21.8061 15.9227 22.0296 16.2082 22.0361H18.2694C19.8938 22.0361 21.2143 20.7278 21.2143 19.12V9.65577C21.2067 9.1025 20.9439 8.58177 20.4929 8.2357L13.3628 2.53155C12.4057 1.77107 11.0669 1.77107 10.1066 2.53372L3.02513 8.23353C2.55686 8.59045 2.29406 9.11118 2.28865 9.67422V19.12C2.28865 20.7278 3.60912 22.0361 5.23348 22.0361H7.31421C7.60729 22.0361 7.84521 21.8029 7.84521 21.5165C7.84521 21.4535 7.85278 21.3906 7.86576 21.3309V18.1903C7.86576 16.9004 8.91911 15.8459 10.2115 15.8373H13.338ZM18.2694 23.6634H16.1887C14.9969 23.6352 14.0777 22.6968 14.0777 21.5273V18.1903C14.0777 17.79 13.7457 17.4645 13.338 17.4645H10.2169C9.8178 17.4667 9.48796 17.7932 9.48796 18.1903V21.5165C9.48796 21.5978 9.47714 21.6759 9.45443 21.7497C9.33763 22.8237 8.42271 23.6634 7.31421 23.6634H5.23348C2.71475 23.6634 0.666458 21.6249 0.666458 19.12V9.66662C0.677273 8.58828 1.17258 7.60106 2.02802 6.95124L9.09538 1.26119C10.6516 0.0244628 12.8199 0.0244628 14.3729 1.25902L21.4911 6.95449C22.3271 7.59347 22.8224 8.57852 22.8365 9.64384V19.12C22.8365 21.6249 20.7882 23.6634 18.2694 23.6634Z" fill="#4558C6"/>
</svg>
