<svg width="16" height="16" viewBox="0 0 16 16" fill="none" xmlns="http://www.w3.org/2000/svg">
<path d="M11.2268 9.55507L11.2156 9.68983L11.3477 9.66107C12.3093 9.45171 13.0505 9.16653 13.5541 8.87552C13.8055 8.73017 14.001 8.58151 14.1349 8.4374C14.2665 8.29569 14.35 8.14603 14.35 8C14.35 7.85397 14.2665 7.70431 14.1349 7.5626C14.001 7.41849 13.8055 7.26983 13.5541 7.12448C13.0505 6.83347 12.3093 6.54829 11.3477 6.33893L11.2156 6.31017L11.2268 6.44493C11.2694 6.95808 11.2928 7.47911 11.2928 8C11.2928 8.52089 11.2694 9.04193 11.2268 9.55507ZM6.44493 11.2268L6.31017 11.2156L6.33893 11.3477C6.54829 12.3093 6.83347 13.0505 7.12448 13.5541C7.26983 13.8055 7.41849 14.001 7.5626 14.1349C7.70431 14.2665 7.85397 14.35 8 14.35C8.14603 14.35 8.29569 14.2665 8.4374 14.1349C8.58151 14.001 8.73017 13.8055 8.87552 13.5541C9.16653 13.0505 9.45171 12.3093 9.66107 11.3477L9.68983 11.2156L9.55507 11.2268C9.04193 11.2694 8.52089 11.2928 8 11.2928C7.47911 11.2928 6.95808 11.2694 6.44493 11.2268ZM6.09968 9.81107L6.10801 9.892L6.18893 9.90032C6.74569 9.95756 7.34625 9.99282 8 9.99282C8.65375 9.99282 9.25431 9.95756 9.81107 9.90032L9.892 9.89199L9.90032 9.81107C9.95756 9.25431 9.99282 8.65375 9.99282 8C9.99282 7.34625 9.95756 6.74569 9.90032 6.18893L9.892 6.108L9.81107 6.09968C9.25431 6.04244 8.65375 6.00718 8 6.00718C7.34625 6.00718 6.74569 6.04244 6.18893 6.09968L6.108 6.108L6.09968 6.18893C6.04244 6.74569 6.00718 7.34625 6.00718 8C6.00718 8.65375 6.04244 9.25431 6.09968 9.81107ZM4.77324 6.44493L4.78445 6.31017L4.65231 6.33893C3.69072 6.54829 2.94946 6.83347 2.44595 7.12448C2.19445 7.26983 1.99902 7.41849 1.86513 7.5626C1.73345 7.70431 1.65 7.85397 1.65 8C1.65 8.14603 1.73345 8.29569 1.86513 8.4374C1.99902 8.58151 2.19445 8.73017 2.44595 8.87552C2.94946 9.16653 3.69072 9.45171 4.65231 9.66107L4.78445 9.68983L4.77324 9.55507C4.73058 9.04193 4.70718 8.52089 4.70718 8C4.70718 7.47911 4.73057 6.95807 4.77324 6.44493ZM9.55507 4.77324L9.68984 4.78445L9.66107 4.65231C9.45171 3.69072 9.16653 2.94946 8.87552 2.44595C8.73017 2.19445 8.58151 1.99902 8.4374 1.86513C8.29569 1.73345 8.14603 1.65 8 1.65C7.85397 1.65 7.70431 1.73345 7.5626 1.86513C7.41849 1.99902 7.26983 2.19445 7.12448 2.44595C6.83347 2.94946 6.54829 3.69072 6.33893 4.65231L6.31017 4.78445L6.44493 4.77324C6.95808 4.73058 7.47911 4.70718 8 4.70718C8.52089 4.70718 9.04193 4.73057 9.55507 4.77324ZM13.7543 5.76604L13.9851 5.87515L13.8898 5.63829C13.2444 4.03482 11.9652 2.75556 10.3617 2.11024L10.1248 2.01491L10.234 2.24574C10.584 2.98616 10.8475 3.89785 11.0252 4.89393L11.0374 4.96258L11.1061 4.97482C12.1021 5.15245 13.0138 5.41604 13.7543 5.76604ZM5.76604 2.24577L5.87515 2.01494L5.63829 2.11027C4.03486 2.75559 2.75559 4.03479 2.11027 5.63826L2.01494 5.87513L2.24577 5.76601C2.98619 5.41598 3.89787 5.15245 4.89393 4.97482L4.96258 4.96258L4.97482 4.89393C5.15245 3.89788 5.41604 2.98619 5.76604 2.24577ZM2.2458 10.234L2.01496 10.1249L2.1103 10.3617C2.75562 11.9651 4.03486 13.2444 5.63826 13.8897L5.87514 13.985L5.76601 13.7542C5.41598 13.0138 5.15245 12.1021 4.97482 11.1061L4.96258 11.0374L4.89393 11.0252C3.89788 10.8475 2.98622 10.584 2.2458 10.234ZM10.234 13.7542L10.1249 13.9851L10.3617 13.8897C11.9652 13.2444 13.2444 11.9651 13.8897 10.3617L13.9851 10.1248L13.7542 10.234C13.0138 10.584 12.1021 10.8475 11.1061 11.0252L11.0374 11.0374L11.0252 11.1061C10.8475 12.1021 10.584 13.0138 10.234 13.7542ZM0.35 8C0.35 3.78179 3.78179 0.35 8 0.35C12.2182 0.35 15.65 3.78179 15.65 8C15.65 12.2182 12.2182 15.65 8 15.65C3.78179 15.65 0.35 12.2182 0.35 8Z" fill="#9FA3A9" stroke="white" stroke-width="0.2"/>
</svg>
